<?xml version="1.0" encoding="utf-8"?>
<!-- Generator: Adobe Illustrator 20.0.0, SVG Export Plug-In . SVG Version: 6.00 Build 0)  -->
<svg version="1.1" id="Layer_1" xmlns="http://www.w3.org/2000/svg" xmlns:xlink="http://www.w3.org/1999/xlink" x="0px" y="0px"
	 viewBox="0 0 24 24" style="enable-background:new 0 0 24 24;" xml:space="preserve">
<style type="text/css">
	.st0{fill:#FFFFFF;}
</style>
<title>addtocart</title>
<path class="st0" d="M11,9h2V6h3V4h-3V1h-2v3H8v2h3V9z M7,18c-1.1,0-2,0.9-2,2s0.9,2,2,2s2-0.9,2-2S8.1,18,7,18z M17,18
	c-1.1,0-2,0.9-2,2s0.9,2,2,2s2-0.9,2-2S18.1,18,17,18z M7.2,14.8v-0.1L8.1,13h7.4c0.7,0,1.4-0.4,1.8-1l3.9-7l-1.7-1l0,0l-1.1,2
	l-2.8,5h-7l-0.2-0.3L6.2,6L5.2,4L4.3,2H1v2h2l3.6,7.6L5.3,14C5.1,14.3,5,14.7,5,15c0,1.1,0.9,2,2,2h12v-2H7.4
	C7.3,15,7.2,14.9,7.2,14.8z"/>
</svg>
