<svg xmlns="http://www.w3.org/2000/svg" viewBox="0 0 81.93 64.81"><defs><style>.cls-1{fill:#fff;}.cls-2{fill:#464648;}.cls-3{fill:#231f20;}.cls-4{fill:#4b4b4d;}.cls-5{fill:#868789;}.cls-6{fill:#ffb547;}.cls-7{fill:#ffe1b6;}.cls-8{fill:#d9272e;}.cls-9{fill:#d87900;}</style></defs><title>logo_small-white_label</title><g id="Layer_2" data-name="Layer 2"><g id="Layer_1-2" data-name="Layer 1"><path class="cls-1" d="M74.36,19.69a7.84,7.84,0,0,0-15.5,1.54v.63a7.83,7.83,0,0,1,15.48-1.29,7.76,7.76,0,0,1,.3,1.74A7.84,7.84,0,0,0,74.36,19.69Z"/><path class="cls-2" d="M58.1,20.73c2.59.93,3.49,4.57,5.23,6,1.46,1.2,3.9.11,4.59,1.59a8.52,8.52,0,0,1,.78,2.74c.9,8.46-11.32,16.72-27.26,18.42S11.72,45.7,10.81,37.23,22.13,20.5,38.11,18.79A45.82,45.82,0,0,1,58.1,20.73Z"/><path class="cls-3" d="M55.87,45.91c7.93-3.42,13.08-8.64,13.06-14-.56-7.23-13.61-9.42-18.76-10.45C45.26,20.56,40.46,19,35.73,19a52.53,52.53,0,0,0-6.81,1.48l-.61.28c-1.64.85-5.05,2-5.67,3.83-.61,2.14,2.91,4,3.52,6,1.07,4.59-4.29,6.12-7.2,7.81-5.66,3.22.87,6.89,4.09,8.27C27.19,48.32,38.13,51.16,55.87,45.91Z"/><path class="cls-1" d="M39.85,52.7C22.36,54.39,7.74,48.23,7.18,38.94c-.29-4.84,3.26-9.57,9.26-13.24,1.07-.65,2.65-1.48,3.42-1.85,1.14-.56-2.11,1.2-3.06,1.86-4.86,3.35-7.72,7.49-7.46,11.71.53,8.82,14.44,14.68,31.1,13.06S70.1,40.41,69.57,31.58a9.16,9.16,0,0,0-.14-1.13,15.22,15.22,0,0,0-1.32-3.09c-.45-.83-.65-.62-.41-.67.67-.15,1.86,2.32,2.3,3.52a9.17,9.17,0,0,1,.54,2.59C71.06,42.1,57.34,51,39.85,52.7Z"/><path class="cls-3" d="M60,4.58l-.83-.48a18.73,18.73,0,0,0-1.74-.83C46.6-1.06,29.66,4.1,30.27,13c-1.32-.55-3.22-2.51-2.61-4.44C30,1.21,47.07-3.19,57.81,2.8a14.15,14.15,0,0,1,1.27.78C59.56,3.89,62,5.74,60,4.58Z"/><path class="cls-4" d="M47.09,2.63c8.13.23,14.31,3.21,15,7a3.79,3.79,0,0,1,0,1.6c-.06.11-.06-1.11-.23-1.61C60.53,5.62,53.8,3.73,47,3.54c-6.11-.2-10.51.71-13.87,2.22-.88.4-2.47,1.45-2.43,1.31a9,9,0,0,1,2.27-1.55A29.2,29.2,0,0,1,47.09,2.63Z"/><path class="cls-3" d="M67.15,14a7.64,7.64,0,1,0,7.5,7.78h0A7.64,7.64,0,0,0,67.15,14Zm-.21,12.22a4.58,4.58,0,1,1,4.66-4.5A4.58,4.58,0,0,1,66.94,26.26Z"/><path class="cls-3" d="M74.09,19a7.7,7.7,0,0,1-8.65,9.84,7.6,7.6,0,0,1-5.55-4.37A7.65,7.65,0,1,0,74.09,19Z"/><path class="cls-2" d="M59.9,18.71c-.28.64-.45,1.54-.22,1.62s.34-.68.7-1.23a8.16,8.16,0,0,1,4.73-3.38c2.75-.78,4.08-.22,4.19-.73C69.55,13.79,62.44,12.8,59.9,18.71Z"/><path class="cls-5" d="M62.44,21.77a4.63,4.63,0,0,0,7.8,3.14A4.92,4.92,0,0,0,71.63,22a4,4,0,0,1-1.26,3.8,4.79,4.79,0,0,1-7.93-4Z"/><path class="cls-2" d="M63,24a4.59,4.59,0,0,1,8.22-4A4.59,4.59,0,1,0,63,24Z"/><path class="cls-1" d="M67.07,16.5a6.41,6.41,0,0,0-5.43,3,5.78,5.78,0,1,1,4.65,9.2,6.81,6.81,0,0,1-4.9-2,7.52,7.52,0,0,0,5.67,2.47,6.31,6.31,0,0,0,6.38-6.24h0A6.42,6.42,0,0,0,67.07,16.5Z"/><path class="cls-3" d="M61.73,12.69c-1.76,2.67-4.55,3.38-7.47,4.92-2,1-4.07-.23-4.47,1.56-1.57,0-3.14.22-4.66.18-2.86-.12-5.61-.91-8.41-1.28A10.1,10.1,0,0,1,34,17.39c-1.06-1.66-2.17-3-3.16-3.35L28,10.1c-1.36,1.91.56,7.65.75,9.94.13,2.9,2.11,9.75,3.42,12.48.54,1.26,2.52,5.71,4.93,7l.19.2a9,9,0,0,0,6.46,1.89c3.29-.12,7.07-.24,9.93-2.19,1.52-1,1.83-2.68,2.74-4.2a17.35,17.35,0,0,0,2.13-4.08c.36-1.28,1-3.41,1.28-4.75a14,14,0,0,0,.4-3c1.33-3.89,1.58-7.54,2.34-13.11Z"/><path class="cls-6" d="M45.62,4.57c-8.5.1-15.39,3.07-15.47,6.57s6.49,6.15,14.73,6.11,15.36-2.88,15.69-6.38S54.19,4.47,45.62,4.57Z"/><path class="cls-7" d="M44,5.1v.07a.15.15,0,0,0,.14,0A.16.16,0,0,0,44,5.1ZM54.31,6.27a.16.16,0,0,0-.17-.06c-.12,0-.08.05,0,.08A.22.22,0,0,0,54.31,6.27ZM44.15,5.1A.28.28,0,0,0,43.92,5c-.13,0-.14.06-.08.06A.38.38,0,0,0,44.15,5.1ZM54.38,6.21c.13,0,.18,0,.18-.07a.15.15,0,0,0-.12,0,.31.31,0,0,0-.21,0A.15.15,0,0,0,54.38,6.21Zm-11.7-1s-.11,0,0,.06a.29.29,0,0,0,.22,0,.53.53,0,0,0-.22,0ZM53.18,6c.08,0,.12,0,.12-.05s-.06,0-.13-.05a.16.16,0,0,0-.14,0A.15.15,0,0,0,53.18,6ZM53,6S53,6,53,6a.24.24,0,0,0-.15,0s-.09,0-.07.07A.27.27,0,0,0,53,6ZM42.89,5.19c0-.09,0-.09,0-.09a.5.5,0,0,0-.23,0s-.11,0-.07.08A.38.38,0,0,0,42.89,5.19ZM42.81,5a.21.21,0,0,0-.19,0c-.11.05,0,0,0,.06A.21.21,0,0,0,42.81,5ZM56.22,6.82s0-.08-.14-.07-.13,0-.08.08A.22.22,0,0,0,56.22,6.82ZM43.66,5.48s0-.08-.14-.06-.14.06-.07.09A.26.26,0,0,0,43.66,5.48Zm2-.91c-8.5.1-15.39,3.07-15.47,6.57s6.49,6.15,14.73,6.11,15.36-2.88,15.69-6.38-6.42-6.4-15-6.3ZM60.24,9.88s-.11.06-.17,0,.11,0,.12,0Zm-1.68,3.45Zm0,0h0a.13.13,0,0,1-.12.06Zm.08-.13h0s-.1.06-.07.06Zm0-.08h0s0,.08-.06.06Zm.1,0h0s-.09.07-.07.07Zm0,0h0s0,.07-.06,0Zm0,0h0s0,0,0,0Zm0-.11h0s.07,0,0,0Zm.06-.14c.06,0,0,.05,0,0s0,0,0,0Zm0,.19h0s.07,0,0,0Zm0,.06h0s0,0,0,0Zm.14-.23c.1,0,0,.09-.06.07s0-.07,0-.07Zm.09-.31Zm0,0h0s.06,0,0,0Zm-.08.09h0s.08,0,0,0Zm-.06.14h0s.09,0,0,0Zm.11-.12c.06,0,0,.07,0,0s0,0,0,0Zm0,.08c.08,0,0,.06,0,0s0,0,0,0Zm.06-.09c.09,0,.07.05,0,0s0,0,0,0Zm0,0c-.07,0,0-.06,0-.08s.11.09,0,.1Zm0-.12c-.07,0,0-.05,0-.06s.14.09.07.08Zm.4-1.74h0c-.06,0,0,0,.07,0Zm0,.08h0s.1,0,.06,0ZM58.89,9h0C59,9,59,9,59,9Zm0,.08h0S59,9,59,9.1Zm-.39-.44a.09.09,0,0,1,.09,0h-.08c-.08,0,0,0,.06,0Zm0,0h.07s0,0,0,0Zm0,.1h0c-.1,0,.08,0,.1,0Zm.09.08h-.07s.18-.06.16,0Zm0,0h.07c-.06,0-.05,0,0,0Zm.11,0a.11.11,0,0,1,.1,0h-.08c-.08,0,0,.08,0,.07Zm0,0h.09s0,.06,0,0Zm.13.09h-.07s.23,0,.19,0Zm-.11-.16h-.09a1,1,0,0,1,.21,0Zm.14-.25c.11,0,.11,0,0,.07a.23.23,0,0,1-.19,0l.3,0Zm-.15.47h0s0,0,.06,0Zm0,0h.07s0,0,0,0Zm0-.25c0-.06.24-.07.22,0s-.1.07-.1,0Zm.46.27c-.08,0,0-.07,0-.09s.17,0,.15,0a.24.24,0,0,1,0,.1Zm.35.16a.09.09,0,0,1-.13,0h0c-.08,0,0-.09.06-.1S59.59,9,59.57,9.1Zm-.24.12h0s.06-.06,0,0Zm-.08,0h0s0-.06,0-.12Zm0,.07h0s.11-.1.08-.07Zm-.19-.23h.08s0-.05,0-.07Zm.17,0h0ZM59.15,9h-.1s.11,0,.1,0Zm-.1-.11a.06.06,0,0,1-.08,0h0s.11,0,.09,0Zm0,.07H59s.07,0,.06,0ZM59,9.1h0Zm0,.05h.07S59,9.1,59,9.1Zm.07.08h0s0,0,0-.05Zm0,0h0s.08-.05,0-.06Zm0,.06h0c-.1,0,0-.05.06-.07Zm0-.05h.06s0-.05,0-.07Zm.11.17h-.08s.21-.09.19-.06Zm0-.08c0-.06.11-.14.23-.15s.22.06.11.12a.54.54,0,0,1-.23.06H59.2s0-.09,0-.09Zm.66.13a.28.28,0,0,1-.27.08c-.13,0,0-.16.07-.18s.32,0,.27,0Zm.07.28c0,.06-.3,0-.21,0s.31-.13.28-.07Zm0,1.58c-.06,0-.3,0-.16-.06s.33-.06.25,0Zm0-.2H60a.16.16,0,0,1-.14,0s.06,0,.1,0Zm-.14.51a.07.07,0,0,1-.1,0h0c-.06,0,0-.06,0-.07s.13,0,.13,0Zm-.51.59h0s.11,0,.06-.06Zm0,0h0s.12,0,.09,0Zm0-.12c-.07,0,0-.05,0-.06s.19.06.13.06Zm0-.09Zm0,0h0a1.33,1.33,0,0,0,.19-.05Zm.19-.16Zm0,.05Zm0-.07h0s.1,0,.06,0Zm0-2.41h.07S59.44,9.45,59.44,9.42Zm.1.11s0,0,0,0Zm0,.08h-.07s.08,0,0,0Zm0,0h0c-.08,0-.1.06,0,.05Zm.08,0h.06s-.1.1-.08.08Zm.06.1h0s0,.06,0,.08Zm0-.15h0c.06,0,0,.07-.05.08Zm-.06-.07h.06s-.11.1-.11.08Zm0,.17h-.08s0,0,.06.08Zm0,.1h0s.07.06.08.08Zm0,0h0s0,.13,0,.12Zm0,.11h0s.07.13,0,.13Zm0,0h0c.07,0,.1.14.08.16Zm0,0h-.06s.16.17.11.23Zm0,.08h0c-.07,0,0,.21,0,.2Zm0,.08h0s.17.18.11.2Zm0,.05h0a1.36,1.36,0,0,1,.06.2Zm0,0a.07.07,0,0,1-.09,0h0s.17.22.16.25Zm0,.14h0s.1.25.06.25Zm0-.13h.07a0,0,0,0,1-.06,0s.06.26.1.25Zm0-.08h0s.13.24.14.24Zm0,.18h0s.18.23.18.24Zm0,.12h-.08s.23.23.23.24Zm0,.33h0c.08,0,.18.24.11.25Zm0,.07h-.06s.22.21.2.25Zm0-.16h0c.06,0,.21.25.15.25Zm0-.08h-.06s.25.22.19.25Zm0-.09h-.06s.2.22.16.25Zm-.06.14h0c.07,0,.15.23.1.25Zm0,0h0c-.08,0,0,.28.07.27Zm0,.12h0c-.07,0,0,.28.08.27Zm0,.08h0c-.06,0,0,.28.08.27Zm0,.09h0s.08.29.11.29Zm-.1.26h0s0,.28.12.28Zm0-.13h0c-.09,0,.1.29.14.28Zm0,.19c.07,0,0,.07,0,.06s.13.22.17.22Zm-.08.15c-.06,0,0-.06,0-.06s.22.35.16.35Zm0,.07h0s.23.29.18.29Zm0,0h0c-.06,0,.11.33.11.32Zm.06,0h0s.12.3.15.3Zm0-.17h0s.12.3.16.3Zm0-.11h0s.23.3.17.3Zm0-.06h0s.22.31.17.3Zm0-.09h0s.25.3.2.31Zm0-.06h0c.08,0,.28.29.22.3Zm0-.14h0c-.09,0,.2.31.23.3Zm.06-.5h0s.29.29.23.3Zm0-.33h0c.06,0,.26.28.23.3Zm0-.07h0a1.33,1.33,0,0,1,.26.28Zm0-.18h-.06s.29.27.26.3Zm-.33-.43h.06a1.14,1.14,0,0,0,.13.3Zm0,.08h-.06a3.08,3.08,0,0,1,.33.3Zm-.11-.22a.12.12,0,0,1,.12,0s0,.05-.09,0,.2.31.21.3Zm.38.4h-.1S59.44,9.44,59.44,9.47Zm0,.09h-.08s0,0,0,0Zm0,.08h.07a.07.07,0,0,1-.09,0h0Zm0,.13h.07c-.06,0-.14,0-.12,0Zm0-.06h0Zm0,.08h0c-.1,0,0,0,.07,0Zm0,.21Zm0-.09h.08s0,0,0,0Zm.06,0h0c-.06,0,0,.05.06,0Zm0,.07h0c.07,0,.11,0,.1,0Zm0,.09h-.09a.1.1,0,1,1,.19,0h0Zm0,.18h0c.08,0,.12,0,.08,0Zm0,.11a.07.07,0,0,1,.08,0h-.09c-.09,0,0,0,.06,0Zm.11.11h-.08a.08.08,0,0,1,.11,0l0,0Zm-.14.14h0s.09,0,0,0Zm0,0h0c-.07,0,0,.05.09.05Zm0,.46h0c.07,0,.15,0,.09,0Zm0,0h0a.06.06,0,0,0,.06.09Zm0,.27Zm0,.16Zm0,.11Zm0,.14Zm0,.09Zm0,.07Zm0,.12Zm-.18.07Zm-.07,0h0s0,.08,0,.07Zm0,.17h0s0,.07,0,.07Zm-.07.09h0s0,.08,0,.07Zm0,0h0s.07.12,0,.11Zm0-.12h0s0,.12.07.11Zm.07-.16h0s0,.11.07.11Zm0,.06h0s0,.11.07.11Zm.29.16c.13,0,.21.07.1.12a.4.4,0,0,1-.32,0c0,.09.18,0,.29,0Zm.3-.63c.12,0,.13.09,0,.13a.41.41,0,0,1-.32,0,.35.35,0,0,1,.39,0Zm-.06,0s0-.08.14-.08.06,0,0,.06a.14.14,0,0,1-.07.1Zm.17-.44c.09-.09.21-.1.23,0s-.25.17-.17.08Zm.17-.31a.41.41,0,0,1-.32,0c-.09-.05.08-.16.21-.16s.28.17.17.23Zm-.29-.27c-.1,0,0-.09.07-.11s.2,0,.18.06a.3.3,0,0,1-.18.12Zm.17.11a.08.08,0,0,1-.11,0h0s0-.07.06-.07.15.1.13.14Zm.14-.34a.28.28,0,0,1-.27.08c-.12,0,0-.16.07-.18s.32.09.27.16ZM59.76,10c0-.06.07-.09.14-.08s.06.06,0,.09-.07.11-.07,0Zm.13.32c-.1,0-.12,0-.1-.05a.15.15,0,0,1,.1-.05.13.13,0,0,1,.11,0s.05.15,0,.16ZM60,9.78a.29.29,0,0,1-.27.08c-.12,0,0-.16.07-.18s.32.09.27.16Zm0-.61a.18.18,0,0,1-.21,0s.26-.07.23.06Zm-.2-.24a.13.13,0,0,1-.17,0s.22,0,.2.06Zm-.16-.18s-.18.06-.2,0,.18,0,.23.06Zm-.09-.22a.13.13,0,0,1-.18,0s.23,0,.21.06Zm-.07.2a.44.44,0,0,1-.31,0C59,8.66,59.28,8.6,59.44,8.73ZM59,8.3c.12,0,.26,0,.21.1a.28.28,0,0,1-.27.09c-.17,0-.1-.17,0-.19Zm-.23.4h.1s-.14,0-.14,0Zm.09-.29a.24.24,0,0,1-.25.09h0a.1.1,0,0,1,.07-.13h0c0-.08.2,0,.17,0Zm-.42.14h0Zm-.08-.11h.08s-.15,0-.12,0Zm0,.06h.08s-.12,0-.09,0Zm0-.1h0c.1,0,.11,0,0,0Zm-.08-.19c-.15,0-.21-.13-.13-.17a.26.26,0,0,1,.3,0,.14.14,0,0,1-.14.16Zm-.1.16h-.06s.1,0,.09,0Zm0,0s.11-.05.1,0-.1,0-.1-.06Zm0,.15h.06s-.07-.05,0-.06Zm0,0h0s.14-.1.09-.1Zm.29,0h-.07S58.44,8.48,58.44,8.51Zm-.06,0h.08s0,.07,0,.05Zm.1,0h-.07s.12.07.11.1Zm0,0h0c-.06,0,0,.15,0,.14Zm.21-.45a.25.25,0,0,1-.18.09c-.11,0-.07.07-.07,0a.22.22,0,0,1,.27,0Zm-.59-.44a.34.34,0,0,1,.36,0,.15.15,0,0,1-.16.15c-.16,0-.27,0-.18,0Zm0,.13s0,.15-.13.15-.31-.13-.23-.18a.36.36,0,0,1,.38.17Zm-.23.34h0c-.11,0,0,.15,0,.14Zm0-.05h.07s-.08.15-.06.14Zm.13.12h-.09s.1.11.1.13Zm0,.06h.06s-.07.15,0,.14Zm0-.11h.07s-.08.16,0,.14Zm0,.07h.06s0,.15,0,.14Zm-.33-.08Zm0,.06h-.06s.15-.06.09-.06Zm0,0h0c.08,0,0,0,0,0Zm0,0h0c-.07,0,0,.07,0,0Zm.06,0h0c-.09,0,0,0,0,0Zm.12,0h-.08s.08,0,.08.07Zm-.17-.38c-.12,0-.23,0-.21-.09a.26.26,0,0,1,.28,0c.07.06.06.13-.06.16Zm-.14.32Zm0,0c-.1.08-.1,0-.1,0s.15.05.09.07Zm0-.1h0s.13.05.06.1Zm.06-.48a.29.29,0,0,1-.24,0c-.06,0,0-.08.07-.09s.23.12.19.16Zm-.46.33c.07-.06.17,0,.09,0s-.11.1-.08.07Zm0,.07h-.08s.12,0,.09.07Zm.06,0h.13c-.06,0-.15.1-.12.08Zm.14.18Zm0,0h0Zm0-.05h.08a.06.06,0,0,1,0-.05Zm-.08-.95a.43.43,0,0,1,.3.05.14.14,0,0,1-.11.13.38.38,0,0,1-.34,0C57.06,7.19,57.18,7.1,57.26,7.1ZM57,7.38a.24.24,0,0,1,.16,0s.06,0,0,.08a.32.32,0,0,1-.26,0A.18.18,0,0,1,57,7.4Zm-.1.28a.38.38,0,0,1,.38,0c.07,0,.17.13,0,.16a.34.34,0,0,1-.39-.14Zm.13.27H57s.09,0,.07,0Zm-.16,0h0c.07,0,0,.05,0,.05Zm0-.07h-.08s0,0,0,0Zm0,0h-.07s0,0,0,0Zm-.06-.4a.34.34,0,0,1-.26,0s0-.08.1-.08.11,0,.06.08Zm-.3.19s0-.07.09-.07.22.07.13.09a.24.24,0,0,1-.33,0Zm.13.21h-.07s0,0,0,0Zm-.56-.06h.06s-.19,0-.16,0Zm0,0h-.06s0-.06-.06,0Zm0-.15c-.11,0-.1-.11,0-.11.3,0,0,.09-.12.08Zm-.14.1H56c-.06,0-.21,0-.18,0Zm0,.06h-.07s0-.05,0,0Zm-.08-.47s0-.08.06-.09.2,0,.16.07a.26.26,0,0,1-.33,0Zm.39.05a.38.38,0,0,1,.19,0s.1,0,0,.08a.33.33,0,0,1-.28,0c-.2-.06-.12-.09-.07-.11Zm0,.42h.09s-.22,0-.2,0Zm.09.05h.06s-.19,0-.17,0Zm0,0h.08s-.13,0-.15-.07Zm.14,0H56.4s0-.06,0,0Zm0,0h0s-.15,0-.08,0Zm.28,0h-.08s0,0,0,0Zm0,0h0s0,0,0,0Zm0-.76s.07.06,0,.07a.38.38,0,0,1-.23,0,.08.08,0,0,1,.07-.08l.08.06Zm-.88-.57a1.47,1.47,0,0,1,.68.08h-.09a.19.19,0,0,0-.19.07s0,.06.15.06a.17.17,0,0,0,.18-.06h0a.15.15,0,0,1,0,.21A.82.82,0,0,1,56,7a.47.47,0,0,1-.54-.24c0-.12.27-.18.35-.19Zm-.22.81c.24,0,.36.09.11.14s-.39-.07-.2-.09Zm.06.37h.06a.46.46,0,0,0-.14,0Zm0-.09h.06a.59.59,0,0,0-.15,0Zm0,0h0c-.06,0-.13.1-.09.09Zm-.16,0h0s-.16.09-.1.08Zm0,0h0c-.1,0-.11,0-.11,0Zm.1.08-.06,0Zm-.14,0h0a.08.08,0,0,0-.07,0Zm-.33-1.45c.2,0,.25.05.21.09a.27.27,0,0,1-.28,0C55,6.3,55.11,6.26,55.18,6.25Zm.16,1.43h.08s-.13,0-.09,0Zm.1.05h-.07S55.44,7.71,55.44,7.73Zm0-.09h-.09S55.44,7.62,55.44,7.64Zm-.2,0h0s-.1.05-.07,0Zm0,0h0s-.1,0-.08,0Zm-.15,0c-.23,0-.06-.14.07-.12.28,0,.13.1-.1.09Zm.07.08h-.07s0-.05,0,0Zm0-.06h.06s-.16,0-.12,0Zm0,.08h0s-.11,0-.08,0Zm-.1-.08H55s.07,0,0,0Zm0,.05H55s.07,0,0,0Zm-.14,0h-.06s.05,0,0,0Zm0-.1h0c-.08,0-.12,0-.08,0Zm0,.05H55s-.12,0-.12,0Zm0-.17c-.2,0-.17-.11,0-.12s.14,0,.15.05a.14.14,0,0,1,.13,0c.17,0,.15,0,0,.07a.11.11,0,0,1-.11,0,.13.13,0,0,1-.18,0l0,0Zm-.48.12h0S54.44,7.62,54.44,7.61Zm0,0h0c-.08,0,0,0,0,0Zm-.09-.17.1-.05c.1-.05.17,0,.13,0a.27.27,0,0,1-.2,0Zm-.12.16h0a.1.1,0,0,1,.09,0,.06.06,0,0,1-.06,0Zm0,0Zm-.57-.11V7.43c0-.06.12,0,.12,0a.13.13,0,0,1-.06.06Zm.09,0h0a.06.06,0,0,1,.07,0Zm-.24,0Zm0,0h0s.16,0,.11,0Zm.59-.26c.16,0,.14.1,0,.09s-.06,0,.12-.05Zm0,.21s0,.05-.06,0-.07,0,0,0a.13.13,0,0,1,.18,0l0,.05ZM54,6.68c-.12-.06-.08-.13.07-.16s.32,0,.3.09a.36.36,0,0,1-.26.1Zm0,.53c-.23.07-.36-.1-.17-.12s.53.08.31.15Zm-.1.26h-.06s.21,0,.2,0Zm-.11,0h0a.12.12,0,0,1,.1,0h-.1Zm-.19-.13c-.23,0-.13-.14,0-.12.46,0,.37.1.14.11Zm.1,0h-.11s-.06,0,0-.05a.13.13,0,1,1,.25.08Zm-.18,0a.1.1,0,0,1-.09,0h0a.12.12,0,0,1,.23.08Zm0,.11h0l.11.07Zm.18,0a.1.1,0,0,1,.09,0h-.07c-.07,0,.12.05.14,0Zm0,0h0s.12.1.15.08Zm.07,0h0c-.07,0,.14.13.17.12Zm0,0h0s.2.1.21.08Zm0,0h0s.23.14.26.13Zm0-.12a.1.1,0,0,1,.1,0h0s.14.14.15.12Zm.09.09a.08.08,0,0,1,.08,0,.06.06,0,0,1-.07,0s.22.14.24.12Zm.07,0h0s.24.17.25.16Zm0-.16H54s.16.18.21.17Zm.12.08h0a.08.08,0,0,1,.08,0s.22.17.19.17Zm.39.26h-.06S54.44,7.59,54.44,7.6Zm0,0h-.08s.08,0,.08,0Zm0-.09h-.07s.07,0,.07,0Zm.15,0h.06s-.12.05-.08,0Zm0,.1h0s0,0,0,0Zm.07,0h0s0,.05,0,0Zm0,0Zm-.08-.29c-.12,0-.15-.09,0-.1.39,0,.14.13,0,.12Zm.11.23h.06s-.06,0,0,0Zm0,.08h.06s0,0,0,0Zm0,0h0s0,0,0,0ZM55,7.1c.1,0,.16,0,.11.06a.24.24,0,0,1-.21,0A.14.14,0,0,1,55,7.1Zm.22-.52a.31.31,0,0,1-.25.14c-.19,0-.32,0-.3-.11a.3.3,0,0,1,.3-.13c.21,0,.24.09.25.14Zm-.49-.27c.12,0,.2,0,.18.06a.2.2,0,0,1-.21,0c-.07.05,0,0,0,0Zm0,.49c.14,0,.18,0,.14.06a.23.23,0,0,1-.21,0c-.06,0,0,0,.07,0ZM53.94,6a1.26,1.26,0,0,1,.43,0c.23.05.29.18.27.23a.55.55,0,0,1-.46.17.57.57,0,0,1-.55-.23A.34.34,0,0,1,53.94,6Zm-.28,1.14a.14.14,0,0,1-.12,0s0,.06-.13.06-.22-.09,0-.12a.16.16,0,0,1,.17,0,.11.11,0,0,1,.11,0C53.82,7.1,53.82,7.1,53.66,7.17Zm-.59.25Zm0,0h0s.06,0,0,0Zm-.33-.14V7.22c0-.06.13,0,.11,0a.12.12,0,0,1-.09.11Zm.07,0h-.07a.09.09,0,0,1,.09.06Zm-.45-.09h.08a.07.07,0,0,1-.06.07Zm.06,0h0a.07.07,0,0,1,0,.08ZM51,6.65h0a.09.09,0,0,1,.1,0s0,.08-.08.09Zm.07,0h.09a.07.07,0,0,1-.09,0s0,.11,0,.1Zm0,0H51a.81.81,0,0,1,0,.11Zm0,0h0a.08.08,0,0,1-.06.14Zm0,.06a.08.08,0,0,1,.09,0h-.06c-.06,0-.14.15-.11.14Zm.08,0h0a.08.08,0,0,1,.09,0,.11.11,0,0,1-.18.13h0Zm.12,0Zm-.08.07h0s-.11.15-.09.14Zm0,0h0a.1.1,0,0,1,.08,0,.09.09,0,0,1-.13.13h0Zm.06-.07h0a.07.07,0,0,1,.07,0Zm.08.23h0C51.4,6.94,51.37,6.92,51.34,6.94Zm0-.06a.07.07,0,0,1,.07,0h-.06C51.29,6.88,51.33,6.89,51.34,6.88Zm0,0h0a.06.06,0,0,1,0,0Zm-.1,0h0Zm0,.06Zm0,0h.07a.06.06,0,0,1-.06,0h0Zm.06,0h.14l-.08,0Zm.06,0h0a.07.07,0,0,1,.07,0h-.07Zm.09,0Zm0,.07h0Zm.12-.13h0c-.08,0,0,0,0,0Zm.35.2h0a.09.09,0,0,1,.08,0Zm0,.07h0s.1-.07.08,0Zm0-.13h0A.08.08,0,0,1,52,7h-.08Zm-.26-.14c-.22,0,0-.15.14-.11s.08.13-.14.1Zm.16.1a.1.1,0,0,1-.1,0s-.06,0,0-.05.13,0,.1,0Zm-.24,0a0,0,0,0,1,.06,0h-.06c-.06,0,0,0,0,0Zm0,.06h.07l-.09,0Zm.08,0h0c-.08,0-.06,0,0,0ZM51.71,7a.2.2,0,0,1,.13,0h-.08c-.08,0-.08.09-.07,0Zm.1.09h.09A.08.08,0,0,1,51.81,7.1Zm0,0h0s.12.06.09.07Zm0,0h0s0,.09.07.08Zm0-.07a.08.08,0,0,1,.07,0h0s0,.07.06.07ZM52,6.57c.59.05,0,.31-.12.23s0-.17.25-.15Zm0-.18c.37,0,0,.13-.09.1s.09,0,.22,0Zm.21.71h0Zm0,0a.06.06,0,0,1,.08,0h-.08Zm0,.09h0c-.06,0-.07,0,0,0ZM52.14,7c-.06,0,0-.1.09-.11s.23,0,.18.07a.29.29,0,0,1-.29,0Zm0,.08h0a.06.06,0,0,1,.06,0Zm.25,0a.11.11,0,0,1,.11,0h-.07C52.41,7.1,52.44,7.15,52.44,7.1Zm.12-.33c.23,0,.25.12,0,.12s-.18-.09,0-.08Zm-.5.33h0a.08.08,0,0,1,.08,0Zm0-.09Zm0,.15h.07S52,7.16,52,7.1Zm0,0h.09a.06.06,0,0,1-.08,0l0,0Zm0-.06a.11.11,0,0,1,.1,0h-.1Zm0,.05a.1.1,0,0,1,.11,0h-.07c-.07,0,0,0,0,0Zm0,.07a.09.09,0,0,1,.08,0H52.1c-.06,0,0,0,.07,0Zm0,.06Zm.08,0Zm0,0h0c-.06,0,.13,0,.14,0Zm.11-.1h.08s0,0,.09,0Zm.17.1h0Zm0,0h0s.06,0,.08,0Zm0-.06h.09a.06.06,0,0,1,0,0Zm.06-.08h.1a.06.06,0,0,1-.08,0s0,.05.05,0Zm0,.17h0s.08,0,.1,0Zm0,0a.09.09,0,0,1,.08,0h-.06c-.06,0,.07,0,.11,0Zm0,0h.09a.07.07,0,0,1,0,0Zm.19-.21c-.15,0-.2-.07,0-.09S52.84,7.1,52.69,7.1Zm.54.17h-.07a.08.08,0,0,1,.07,0Zm0-.24c.09,0,.17,0,.14.05a.22.22,0,0,1-.21,0A.08.08,0,0,1,53.23,7Zm0,.3a.08.08,0,0,1-.07,0h0s0,0,0,0Zm-.29-.46c-.07,0,0-.06,0-.08a.51.51,0,0,1,.18,0,.24.24,0,0,1-.22.07Zm0,.45h-.06s.05,0,0,0Zm0-.14h.09a.08.08,0,0,1-.07,0s-.11,0-.09,0Zm0,.07a.08.08,0,0,1,.09,0h0s-.16,0-.15,0Zm.06,0h0l0,0ZM53,6.94h.15a.24.24,0,0,1-.23,0c-.11.07,0,.06,0,.05Zm0,.24a.09.09,0,0,1-.1,0h0s0,0,0,0Zm0,.11H53s-.2.06-.17,0Zm.06.06h0c-.1,0-.11.05-.09.05Zm.06,0h0s-.17,0-.14,0Zm.13,0a.06.06,0,0,1,.07,0h0s-.18,0-.17,0Zm.06.09h0c-.06,0-.14,0-.12,0Zm0,0h.07l-.14,0Zm0-.07h.07a.08.08,0,0,1-.11,0Zm.08.08h0s-.06,0-.05,0Zm0,0h0a.07.07,0,0,1,.08,0,.19.19,0,0,0-.09,0Zm.09-.12Zm0,.15h0c-.06,0-.07,0-.06,0Zm0,0h0c-.1,0,0,0,0,0Zm.06,0Zm0-.08h.07a.07.07,0,1,1-.13,0Zm0-.85a.72.72,0,0,1-.51.07c-.23-.05-.3-.16-.18-.24a1,1,0,0,1,.49-.05h.07a.15.15,0,0,0-.12.05h-.17a.09.09,0,0,0-.1.06.16.16,0,0,0,.17,0c.08,0,.11,0,.11-.06a.24.24,0,0,0,.17,0h0c.08.05.12.13,0,.18Zm-.22-.78c.11.07.21.15.11.27a1.06,1.06,0,0,1-.89.16c-.38-.1-.41-.27-.17-.39a1.4,1.4,0,0,1,.92,0Zm-1.63-.1a.23.23,0,0,1,.14-.07,1,1,0,0,1,.26,0h0a.23.23,0,0,0,.21,0h0a.36.36,0,0,1-.36.12c-.27.08-.29,0-.28,0Zm.07,1c.11,0,.13.05,0,.06s-.12-.1,0-.1Zm-.17.06c.16,0,.12.07-.06.07h-.09a.19.19,0,0,1-.17,0c-.18,0-.1-.13.08-.12s.12,0,.11.07a.19.19,0,0,1,.1-.06Zm-.46-.11a.29.29,0,0,1,.15-.07c.07,0,.13,0,.07.07A.24.24,0,0,1,51.14,6.62Zm.1-.35h.15a.34.34,0,0,1-.24,0C51.09,6.32,51.15,6.28,51.24,6.27ZM51,6.46h.11a.26.26,0,0,1-.24,0Zm-.42.21h0a.07.07,0,0,1,.08,0h-.08Zm0,0h0s0,0,0,0Zm-.41-.2a.06.06,0,0,1,.06,0h0s0,0,0,0Zm0,0a0,0,0,0,1,.06,0H50.2c-.06,0,0,0,0,0Zm0,.08h.06s0,0,0,0Zm.07,0h0s0-.06,0-.06Zm0-.14.17-.13s.14,0,.07.08a.24.24,0,0,1-.16,0Zm.22.16Zm-.2,0h0c-.06,0,0,0,.07,0Zm0,0h.06a.15.15,0,0,0,.09,0Zm.15,0h0S50.44,6.61,50.44,6.6Zm0,0h.1l-.1,0Zm0-.06h0a.12.12,0,0,1,.09,0,.07.07,0,0,1,0,0Zm.24.06h0a.07.07,0,0,1,.07,0s.11,0,.07,0Zm0,0Zm0-.14c-.14,0-.11-.1.06-.09s.13.17,0,.15Zm-.06-.17c-.13,0,0-.1.07-.08s.12.16,0,.14Zm0,.23Zm0,.12h.06s0,.07,0,.06Zm.06,0h.06s0,.12,0,.11Zm0,0h0s.08.16.09.15Zm0-.07h0c-.06,0,.06.16.09.15Zm0,0a.06.06,0,0,1,.07,0h0s.09.19.1.18Zm0,0h0s.1.23.12.22Zm0-.08h0a.1.1,0,0,1,.11,0,.11.11,0,1,1,0,.22Zm0-.59c.27.09-.17.17-.19.11s.22.09.32.09Zm-.36,0c-.22,0-.16-.14,0-.12s.36.32.14.38Zm-.28-.19c-.14,0,0-.1.1-.07s.17.35,0,.33Zm0-.36c.37,0,0,.13-.09.1s.12.15.25.16Zm.09.75c.17,0,.23.08.14.12a.56.56,0,0,1-.42,0C49.86,6.1,50.08,6.1,50.18,6.1Zm0,.33a.06.06,0,0,1,.06,0h0s-.12,0-.11,0Zm0-.06h0s-.08,0-.06,0Zm0,.1h.07s-.14,0-.12,0Zm0-.11Zm0,0h0s-.13-.05-.11-.06Zm0,.08h.06s-.21-.05-.19-.06ZM50,6.38h0c-.06,0-.15-.05-.13-.06Zm0,0h0s-.13-.11-.15-.11Zm0,0h0a.06.06,0,0,1,.06,0,.62.62,0,0,0-.16-.07Zm0,0h0S50,6.33,50,6.32Zm-.23-.3c-.22,0,0-.15.13-.12s0,.14-.23.06Zm0,.14h0s-.13,0-.12-.05Zm0,0h0l-.12-.12Zm0,.07h0s-.1-.07-.08-.08Zm-.42-.54a.22.22,0,0,1-.21,0,.29.29,0,0,1,.14-.07C49.43,5.68,49.53,5.73,49.44,5.75Zm0,.2Zm0,0a0,0,0,0,1,.06,0h0S49.38,5.94,49.44,5.93Zm0-.06Zm0,0h0a.07.07,0,0,1-.06,0Zm0,0a.1.1,0,0,1-.11,0h0s0-.11,0-.09Zm-.08.07h0s-.15-.12-.16-.09ZM49.3,6h0s-.23-.08-.21-.09Zm.06,0h.06s-.24-.11-.22-.12Zm0,.09h0S49.22,6,49.23,6Zm.07,0a.06.06,0,0,1,.07,0h-.07c-.07,0-.15-.17-.13-.17Zm0,.06h0c-.06,0-.06-.17,0-.18Zm0-.11Zm0,0a.06.06,0,0,1,.06,0h0s-.06,0-.06,0Zm0,0h0s0,.06,0,0Zm0,0h0c-.08,0,0,.06,0,.06Zm0-.08h0s.07.06.09,0Zm.15.14h0Zm.12,0Zm0,0h0Zm.17-.29c-.12,0-.1-.07,0-.07s.11.08,0,.09Zm-.14-.21c.21,0,.1.16-.08.12S49.56,5.59,49.74,5.6Zm-.06.23c.16,0,.11.06-.06.07s-.08-.1.07-.07Zm-.19-.39a.37.37,0,0,1-.24,0s0-.06.1-.07.21,0,.15.07Zm-.28-.22c.27.09-.17.17-.19.11S49.11,5.19,49.21,5.22Zm-.07.37h.11a.27.27,0,0,1-.24,0ZM49,5.85h0s0,0,0,0Zm0-.05h.08a.06.06,0,0,1-.07,0s0,0,0,0Zm0,.09h0s0,0,0,0Zm0-.14h-.06s.11,0,.11,0Zm-.23,0h0a.1.1,0,0,1,.1,0s0,0,0,0Zm0,0h0s.1,0,.1.06Zm-.87-.22H48a.06.06,0,0,1,0,.06Zm0,.07h0s.1.05.07.06Zm-.62-.18h0a0,0,0,0,1,.06,0s.11.06.06.06Zm0,.08h0a.09.09,0,1,1,.17.06Zm0-.06h0s.15.07.15.06Zm.07,0h0s.11.09.18.09Zm0,0h0c-.06,0,.14.06.16.05Zm0,.08a.08.08,0,0,1,.07,0,0,0,0,0,1-.06,0,.83.83,0,0,0,.2.05Zm0,0h.06a.1.1,0,0,1,.19,0h0Zm0-.2c-.21,0,0-.15.15-.11S47.69,5.35,47.44,5.32Zm.32.18h0C47.7,5.5,47.74,5.51,47.76,5.5Zm0,.05h0c-.07,0,0,0,0,0Zm.09,0h0c-.07,0,0,.05,0,0Zm0,0h.06a.08.08,0,0,1-.06,0Zm0-.08a.1.1,0,0,1,.11,0,.09.09,0,0,1-.1,0s0,0,0,0Zm0,.11h0c-.06,0,0,0,0,0Zm.14.06h0s0,0,0,0Zm0,0h0a.09.09,0,0,1,.08,0H48Zm0,0h0s.07,0,.09,0Zm0-.07Zm.1.06h.07s0,0,0,0Zm0,0h0s.1,0,.07.06Zm0-.14h0l.05,0Zm.09,0Zm0,.09a.06.06,0,0,1,.06,0h0s0,.08,0,.07Zm.06,0h0a.93.93,0,0,0,.05.1Zm0,0h0a.07.07,0,0,1,.07,0s0,.06,0,0Zm.13,0Zm0,.12Zm0,0h0s-.1,0-.1,0Zm0-.05a.08.08,0,0,1,.08,0h-.06c-.06,0-.07,0,0,0Zm0-.06a.07.07,0,0,1,.08,0h-.06c-.06,0-.07,0,0,0Zm.09.11h0c-.06,0,0,0,0,0Zm0,0h.06A0,0,0,0,1,48.63,5.7Zm0-.11Zm.11,0h0a.23.23,0,0,1,0,.05Zm-.11.1h0s0,.06,0,.05Zm.08-.06a.07.07,0,0,1,.07,0h-.06c-.06,0,0,.07,0,.06Zm.11,0a.12.12,0,0,1,.09,0h0l0,.06Zm0,.14h0s0,.08.07.07Zm0,0h0s.07.05,0,0Zm-.06-.16c-.14,0-.11-.1.06-.09s.16.15,0,.13Zm0-.25c.13,0,.07.1-.07.08s.08-.06.16,0Zm-.24-.23c.2,0,.23.11,0,.12s-.08-.1.09-.08Zm0,.24c.1,0,.14,0,.07.07a.24.24,0,0,1-.21,0l.22,0Zm-.33-.15c.17,0,.23.08.13.12a.55.55,0,0,1-.42,0,.57.57,0,0,1,.37-.08ZM48,5.1c.2,0,.23.11,0,.12S47.83,5.1,48,5.1Zm-.1.38h-.12s.12-.06.13,0ZM47.54,5c.29,0,.34.16,0,.18S47.3,5,47.54,5Zm-.22.43h0Zm0,.08a.06.06,0,0,1,.06,0h-.07c-.07,0,0,0,0,0Zm-.07,0a.07.07,0,0,1-.09,0h0a.08.08,0,0,1,.1,0Zm-.06.09h0s0,0,0,0Zm0-.2a.56.56,0,0,1-.42,0c0-.06.18-.08.28-.08s.21,0,.12,0Zm-.22,0a.08.08,0,0,1,.09,0H47c-.07,0-.08,0,0,0Zm0,.14h0a.14.14,0,0,1-.07,0Zm.16-.06h0c-.09,0-.11,0-.06,0Zm-.29,0a.06.06,0,0,1,.06,0h0s-.16.06-.13,0Zm0-.13a0,0,0,0,1,.06,0h0l-.13.05Zm0,.1h0s-.06.05-.09,0Zm0,0h0s0,.06,0,.05ZM47,5.1h-.06C46.78,5.1,46.87,5,47,5.1ZM46.66,5c.2,0,.21,0,.07.07S46.57,5,46.66,5Zm-.07.45h0a.08.08,0,0,1,.09,0l-.09,0Zm0,.07h0c.08,0,0-.05,0,0Zm-.33,0h0s0,0,0,0Zm0,0h0c-.06,0-.06-.08,0-.09Zm.09-.06h0s-.07-.08,0-.08Zm.09,0Zm0,0h0s0,0,0,0Zm0-.11h.07s-.07,0-.07,0Zm0-.08c-.11,0-.08-.07,0-.06s.14.08,0,.08Zm.21.22h0s0,0,0,0Zm0,0a.08.08,0,0,1,.09,0h0s-.1,0-.08,0Zm-.21-.28c-.09,0,0-.11.1-.09C46.89,5.17,46.55,5.25,46.44,5.22Zm-.25-.31c.16-.06.35,0,.24.07s-.35,0-.22-.07Zm-.12.26a.3.3,0,0,1,.32,0,.37.37,0,0,1-.35.12c-.12,0,0-.09,0-.13Zm0,.31Zm0-.11a.08.08,0,0,1,.07,0h0s-.1,0-.09,0Zm0,.13Zm.08,0h0s0,0,0,0Zm0-.07h.06l-.06,0ZM46,5.4h0C45.87,5.4,45.92,5.41,46,5.4Zm0,.12a.06.06,0,0,1,.06,0h0s0,0,0,0Zm0,0h0s0,0,0,0Zm0,.06h0s0,0,0,0Zm0,0Zm-.28,0h0s-.07,0,0-.05Zm0-.08h0l-.06-.05Zm0,.12h0s-.06-.05,0-.05Zm0-.07h0s0,0,0-.05Zm0-.14h.12s-.13,0-.07-.05Zm0,.09h0s.12-.05.09-.05Zm0,.1h0l.06-.05Zm0,0h0l.06,0Zm0-.07h0s.1,0,.12,0Zm0,.05h0l.11,0Zm0-.07h0a.09.09,0,0,1,.09,0s.08,0,0,0ZM45.57,5c.3-.09.22.07.11.09s-.09-.09,0-.12Zm0,.15c.14,0,.17,0,.07.05s0-.06.08-.06Zm-.13.18c.29-.09.22.07.11.09s-.11-.09,0-.12Zm0,.33h0l.12,0Zm0,0h0a.44.44,0,0,1,.1-.06Zm0,0h0s.17-.09.14-.09Zm-.08-.08h0c-.09,0,.08-.08.14-.09Zm0,.09h0a.07.07,0,0,1,.07,0s.07-.09,0-.1Zm0,.05Zm-.22,0h.06s.13-.07.09-.07Zm0,0h0l.18,0Zm0-.11a.06.06,0,0,1,.06,0h0s.09,0,.1,0Zm0,.07h0l.16,0Zm0,0h0l.18-.07Zm-.08-.09c-.07,0-.07-.06,0-.07-.16,0-.25,0-.13-.09s.28,0,.2.08a.09.09,0,0,1,.1,0h0Zm-.18.17h0a.08.08,0,0,1,.07,0s.17-.05.11-.06Zm0,0h0a.72.72,0,0,0,.21,0Zm-.15,0h.1a.09.09,0,0,1,.1-.08h0Zm.28,0h0Zm-.45.07h0a.1.1,0,0,1,.09,0Zm0,0h0c.08,0,.1,0,.05,0Zm-.52,0h.12a.16.16,0,0,1-.12,0h0c-.16,0-.32,0-.15-.09a.26.26,0,0,1,.15,0l.06-.06a.15.15,0,0,1,.13,0,.12.12,0,0,1-.14,0h0s0,.16,0,.19Zm0,.08h0s.13,0,.09,0Zm-.15,0h-.08a1,1,0,0,1,.17,0Zm-.9.06Zm0,0h0l.11,0Zm-1-.24h0s.06,0,.09,0Zm0-.18a.13.13,0,0,1,.17,0,.11.11,0,0,1-.11.1c-.11,0,0,0,0-.06Zm0,.25a.08.08,0,0,1,.07,0h0s-.08,0,0,0Zm.09,0h-.07c-.07,0,.05.07.09.06Zm0,0s0,0,0-.05.07,0,.08,0,0,.1,0,.09Zm.1,0h0s0,.06,0,0Zm.16-.07c-.11,0-.2-.12-.07-.13C42.73,5.51,42.57,5.7,42.44,5.67Zm.14.07h-.09a.06.06,0,0,1,.08,0l0,0Zm-.14,0Zm-.08.09Zm0-.05a.09.09,0,0,1,.09,0h-.06c-.06,0,0,0,0,0Zm.08.05h0S42.44,5.86,42.44,5.85Zm0,0h0a0,0,0,0,1,.06,0h0Zm0,0Zm0,0h0l.14,0Zm0,0h.07a.08.08,0,0,1,.1,0Zm.09-.07h0a.11.11,0,0,1,.12,0h-.12Zm0-.13c.13,0,.25,0,.12.07s-.09,0,.05-.08Zm0,.18H42.5a2.54,2.54,0,0,0,.29,0Zm0,.06a.08.08,0,0,1,.07,0h-.06a1,1,0,0,0,.23,0Zm0-.08h0s.3,0,.28,0Zm.09,0h0Zm0,.09h.06a.13.13,0,0,1,.25,0Zm0,0h0l.3,0Zm.11-.14a.09.09,0,0,1,.09,0h-.08c-.08,0,.26.06.3,0Zm0,.05h0l.35,0Zm0-.18c-.07,0-.1,0-.06-.07a.14.14,0,0,1,.17,0s.27.11.2.12Zm.11-.2c-.12,0-.18,0-.1-.06s.53.1.41.11Zm.09.38a.07.07,0,0,1,.08,0H43a1.53,1.53,0,0,0,.33,0Zm0,0s0-.06.07,0,.06,0,0,.06a.14.14,0,0,1,.27-.05Zm.46.07h.06a.06.06,0,0,1-.07,0S43.44,5.89,43.44,5.88Zm-.13-.3c-.1-.11.08-.18.19-.19.39,0,.4.1.33.18a.55.55,0,0,1-.52,0Zm0-.35a.19.19,0,0,1,.23,0,.15.15,0,0,1-.19.08c-.11,0-.1,0,0-.07Zm.23.45c.13,0,.21,0,.09.06s-.19,0-.1-.06Zm0,.22Zm0,0h0a.08.08,0,0,1,.08,0l-.07,0Zm.12,0h.08a.12.12,0,0,1-.11,0s0,0,0,0Zm.07-.09h.08l-.07,0Zm0,0h.1s-.11.05,0,0Zm0,.07a.07.07,0,0,1,.07,0h-.07c-.07,0,.05,0,.09,0Zm.38-.36c-.11,0-.16,0-.09-.05s.28.06.18.07Zm0,0S44,5.6,44,5.59s0,0,0-.06a.13.13,0,1,1,.26.05h0Zm-.24-.07c-.1,0-.18-.11-.07-.12.42,0,.28.21.18.19Zm.33.32h.08s0,.07,0,.07Zm-.1-.35c-.14,0,0-.1,0-.14a.3.3,0,0,1,.32,0,.36.36,0,0,1-.22.21Zm.41,0c-.07.12-.07,0,0,0s.21,0,.09.06Zm-.23,0a.14.14,0,0,1,.17,0,.12.12,0,0,1-.14.06c0,.11,0,.07.07.05Zm.16.36h.06a.15.15,0,0,1-.15,0S44.44,5.78,44.44,5.78Zm0-.08Zm.34-.6a.3.3,0,0,1,.32,0,.37.37,0,0,1-.35.12C44.6,5.24,44.71,5.16,44.78,5.1Zm.12.25c-.06,0-.09,0-.06-.07a.13.13,0,0,1,.16,0s0,.09-.11.1Zm-.12.34h.11a.09.09,0,0,1-.12,0Zm0,.05h.07l-.1,0Zm.13-.08H45a0,0,0,0,1-.06,0l0,0Zm0-.19s0,.05,0,.07-.23,0-.11-.07h.07c-.09,0-.14-.1,0-.11s.11.12,0,.14Zm.11,0c-.08,0,0,0,0-.06a.13.13,0,0,1,.14,0s-.08.14-.16.12Zm.2,0h0a.09.09,0,0,1,0,.06Zm0,.08h0s0,.06,0,.07Zm0-.45a.14.14,0,0,1,.19,0,.12.12,0,0,1-.14.06C45.2,5.18,45.21,5.1,45.25,5.1ZM45.44,5a.46.46,0,0,1-.29.14c-.16,0-.1-.1,0-.13A.33.33,0,0,1,45.44,5Zm-.33,0a.36.36,0,0,1-.35.12c-.14,0,0-.1,0-.14a.29.29,0,0,1,.33,0Zm-.67-.15c.12,0,.28,0,.18.05S44.37,4.85,44.44,4.81Zm0,.14c.19.05.25.13.12.27a1,1,0,0,1-.92,0c-.22-.15,0-.27.11-.3A1.33,1.33,0,0,1,44.44,5Zm-.84-.1c.26-.08.2.06.1.07s-.17-.05-.08-.07Zm0,.14a.37.37,0,0,1-.35.12c-.14,0,0-.11,0-.14a.3.3,0,0,1,.39,0Zm-.46-.16a.2.2,0,0,1,.23,0,.16.16,0,0,1-.2.08c-.06,0-.06-.06,0-.08Zm-.33,0c.22,0,.26,0,.11.08s-.27,0-.08,0Zm-.37.2a.84.84,0,0,1,.87.12c0,.08,0,.21-.3.28a1,1,0,0,1-.82-.08C42.07,5.2,42.27,5.1,42.44,5ZM42,5c.18-.11.24,0,.16.05s-.26,0-.2-.06Zm.09.07c.06,0-.07.16-.23.16s-.13-.09-.09-.13A.32.32,0,0,1,42.11,5.1Zm-.32.59h0s0,.06,0,.05Zm0,0a.08.08,0,0,1,.07,0h-.07Zm0,.06a0,0,0,0,1,.06,0h-.06c-.06,0,0,0,0,0Zm.06,0h0s0,0,0,0Zm0,0Zm0-.11c-.13,0-.25,0-.12-.07s.33,0,.21.07ZM41,5.82Zm0,0h0l.06,0Zm0,0h0a.44.44,0,0,1,.1-.06Zm0-.13c-.08,0-.07-.07,0-.08a.16.16,0,0,1,.18,0l-.05,0Zm.06.09h0a.09.09,0,0,1,.08,0s.08-.05,0-.06Zm0,.07h0a.48.48,0,0,1,.12-.05Zm0,0h.06s.15-.08.11-.09Zm0,0h0l.2-.07Zm.06,0h0l.2-.05Zm0,0h0s.2-.05.17-.06Zm0,0h0a1.56,1.56,0,0,0,.22-.1Zm0-.28c.15,0,.23,0,.1.07s0-.17.08-.18Zm0-.17a.29.29,0,0,1,.31,0,.36.36,0,0,1-.34.12.57.57,0,0,1,.24-.23Zm.11.5h-.06c-.06,0,.23-.11.26-.11Zm0,0h0l.26-.12Zm0,0h.26V5.74Zm.08,0h0s.25-.15.18-.15Zm0,0h0l.25-.11Zm0-.3c.34,0,.18.16.07.13s.11-.22.21-.24Zm.19.26h0l.27-.1Zm-.18-.07h0a2.91,2.91,0,0,1,.28-.1Zm0,.06a.06.06,0,0,1-.07,0l.36-.1Zm.07-.05a.07.07,0,0,1,.08,0h-.08c-.08,0,.26-.1.29-.11Zm0,.1h0l.31-.11Zm0,0h0l.3-.08Zm.07,0h-.06a3,3,0,0,1,.36-.12Zm.06-.41c.09,0,.21,0,.1.06s.11-.15.19-.18Zm.26.34h0a1.88,1.88,0,0,1,.3-.12Zm0,0h0c-.06,0,.22-.08.25-.08Zm0,0h0l.27,0ZM41.1,5.1a.31.31,0,0,1,.28,0V5c0-.07.24,0,.19,0a.22.22,0,0,1,.18,0,.1.1,0,0,1-.12.1.12.12,0,0,1-.1,0h-.09a.31.31,0,0,1-.23.15C41.07,5.25,41.06,5.16,41.1,5.1Zm-.1.17c.08-.06.25-.06.22,0s-.29.07-.22,0Zm0,.42a.1.1,0,0,1,.09,0H41s-.07,0,0,0Zm0,.05h-.06a.07.07,0,0,1,.08,0Zm0,.07h0s0,0,0,0Zm-.25,0h0a.07.07,0,0,1,.09,0h-.09Zm.06,0h0s0,0,0,0Zm-.06-.15c-.08,0,0,0,0-.06a.14.14,0,0,1,.15,0s-.06.1-.15.08Zm.15.09h0c.06,0,0,0,0,0Zm0,.07h0c.08,0,0,0,0,0Zm.07,0Zm0-.1h0a0,0,0,0,1,.06,0H41Zm0-.17c-.11,0-.18,0-.09-.06s.13.05,0,.07Zm-.53-.21a.31.31,0,0,1,.31,0c.06,0-.07.16-.22.16S40.44,5.39,40.44,5.34Zm.09.5h0s0,0,0,0Zm-.06,0h0c-.06,0,0,0,0,0Zm.08,0h.07s0,0,0-.05Zm.09,0h0l0,0Zm-.2-.08Zm0,.14h0s.06,0,0,0Zm0-.1h.06s-.06,0-.06,0Zm0,.05Zm-.2,0h0s0,0,0,0Zm0,0h0s0,.07,0,.07Zm-.29,0h0s0,.05,0,0Zm0,0h0s0,0,0,0Zm0,.06h0a0,0,0,0,0,0,0Zm0-.07h0s0,0,.05,0Zm.06,0h0s0,.08,0,.07Zm0-.07h0s.08.07,0,.07Zm0,0a0,0,0,0,1,.06,0h0s0,.11,0,.1Zm0,0h0s.13.15.14.14Zm0-.07h0a.1.1,0,0,1,.09,0s.1.14.06.14Zm.09,0h0a1,1,0,0,0,.15.13Zm0,0h0s.11.19.13.17Zm0-.09h.06a1.24,1.24,0,0,0,.14.18Zm0,0h0s.21.22.23.21ZM40,5.35c.25-.08.2.06.1.07s0,.18.13.15Zm0,.13a.33.33,0,0,1-.34.12c-.14,0,0-.1,0-.14a.32.32,0,1,1,.59.24h0Zm-.53.24h0a1.79,1.79,0,0,0,.25.22Zm0,0h0a3.25,3.25,0,0,1,.26.27Zm0-.13a.09.09,0,0,1,.08,0h0a1.78,1.78,0,0,0,.17.27Zm.31.38h0S39.72,6,39.74,6Zm0,0h.06a0,0,0,0,0,0,0Zm0,0h0l.06,0Zm0-.07a.06.06,0,0,1,.07,0h0a0,0,0,0,1,0,0Zm0,0h0s.09,0,.12,0Zm-.18-.45c.21,0,.26,0,.12.08s-.24,0,0-.06Zm0,.44h0a.06.06,0,0,1,.11,0ZM39.5,6h0a.69.69,0,0,1,.16,0Zm-.06,0h0s.14.06.11.06Zm0-.08ZM39.38,6h0s.17,0,.16.06Zm.06,0Zm0,0Zm0-.12c-.08.07-.29,0-.19,0s.3-.05.19,0ZM39.25,6h-.06s.13,0,.09,0Zm0,0h-.07s.11,0,.1.09Zm0-.06h0s.06,0,0,0Zm0-.07a.06.06,0,0,1,.06,0h0s0,.05,0,0Zm.14.12h-.07S39.44,6,39.39,6Zm0,0h-.07a.35.35,0,0,1,.12,0ZM39,5.6a.31.31,0,0,1,.32,0,.34.34,0,0,1-.34.12C38.81,5.71,38.91,5.63,39,5.6Zm.06.5h.12A.12.12,0,0,1,39,6.1Zm.12,0h0ZM39.08,6C39,6,39,6,39.08,6a.1.1,0,0,1,.13,0,.13.13,0,0,1-.14,0Zm-.14.06h0Zm0,0Zm0,.05h0s-.07-.05,0-.05Zm0,0a.12.12,0,0,1-.11,0s0-.05,0-.05Zm0,0a.09.09,0,0,1-.09,0s0-.05,0-.05Zm-.14-.28c.11,0,.16.07,0,.07s-.18-.07-.08-.08Zm-.18.23h.08A.09.09,0,0,1,38.62,6.1Zm.09,0h0Zm0,0h-.06s.08.06.06.07ZM38.44,6c.15,0,.3,0,.27.06a.55.55,0,0,1-.41.06C38.15,6.1,38.31,6,38.44,6Zm-.1.29h0s-.05,0,0,0Zm-.06,0h.06s-.1,0-.11,0Zm0,0h0Zm.11,0h-.06c-.06,0,.06,0,.06,0Zm-.08-.07c-.06,0,.13-.05.13,0a.14.14,0,0,1-.17,0Zm.16,0a.08.08,0,0,1-.08,0s.08,0,0,0Zm-.08-.09h.09A.1.1,0,0,1,38.44,6.1Zm.12,0h0s.1,0,.09.06Zm0,0h-.09s.14.08.15.09Zm-.42.07a.08.08,0,0,1-.08,0s.13.06.14.09Zm0,0,.06.12Zm0,.05a.15.15,0,0,1-.13,0S38.13,6.17,38.14,6.22Zm0,.07H38s0,0,.06,0Zm-.16,0h0c-.09,0-.08.05,0,0Zm0,0h-.09s0,0,0,0Zm-.34-.15a.3.3,0,0,1,.31,0,.34.34,0,0,1-.34.12c-.17,0-.11-.07,0-.1Zm0,.23h.14a.17.17,0,0,1-.24,0h0Zm0,.07h-.07l0,0Zm0-.12h.12a.16.16,0,0,1-.21,0Zm.22,0h-.06l0,0Zm-.3.07h-.06s0,0,0,0Zm-.34-.22a.21.21,0,0,1,.23,0,.15.15,0,0,1-.19.08c-.19.05-.19,0-.13,0Zm.12.25h.09a.09.09,0,1,1-.18,0Zm0,.06h-.06s.11,0,0,0Zm-.11,0a.06.06,0,0,1-.08,0s.07,0,0,.05Zm0,0a.16.16,0,0,1-.13,0s.11-.06.06,0Zm-.11.07h-.08s.05,0,0,0Zm-.11,0H37s0,0,0,0Zm-.12-.18c.07,0,0,.09,0,.1a.11.11,0,0,1-.13-.06s0,0,.07,0Zm0,.23a.08.08,0,0,1-.08,0s0,0,0,0Zm-.32-.09c.07-.06.27,0,.19,0s-.37.1-.29,0Zm.07.19h-.06S36.71,6.66,36.69,6.7Zm-.06-.05a.13.13,0,0,1-.15,0S36.65,6.61,36.63,6.65Zm-.06.08a.07.07,0,0,1-.1,0h0S36.58,6.7,36.57,6.73Zm-.3-.35h.15C36.34,6.38,36.23,6.42,36.27,6.38Zm-.08.15c.28-.09.32.1.2.1S36.09,6.57,36.19,6.53Zm.25.24h-.12S36.33,6.75,36.44,6.77Zm-.6-.11a.18.18,0,0,1,.19,0s0,.09-.08.08S35.82,6.68,35.84,6.66Zm.11.27h-.11s.18-.05.11,0Zm-.06-.37h.16c-.1,0-.23,0-.15,0Zm-.15-.16a.31.31,0,0,1,.31,0c.06,0,0,.16-.2.17S35.71,6.44,35.74,6.4Zm0,.55h.07s-.12,0-.11,0Zm0,.08h0c.07,0,0,0,0,0Zm-.09-.19c-.1,0-.07,0,0-.06a.1.1,0,0,1,.13,0c.07,0,0,.06-.07.06Zm-.14-.17h.15c-.08,0-.22,0-.14,0Zm.19-.24c0,.07-.23.08-.22,0a.14.14,0,0,1,.19,0l0,0Zm-.13.41c.1,0,.1.15,0,.18a.16.16,0,0,1-.21-.09h0c0-.08.08-.12.22-.08Zm.07.26h0S35.65,7,35.64,7.1Zm-.2,0Zm-.12.05h-.08s.2-.05.1,0ZM35,6.82c.15-.12.24,0,.17,0s-.2.06-.15,0ZM34.86,7a.3.3,0,0,1,.31,0c.07,0,0,.16-.18.17S34.86,7,34.89,7Zm.09.24h.12s-.09.05-.1,0Zm0,.1h-.06s.13,0,.1,0Zm-.19,0h0c-.06,0,0,.05,0,0Zm-.22.09h.09s-.06.07,0,0Zm0,.09h0c.07,0,.08,0,0,0Zm0-.14c-.07,0,0,0,.07-.05s.07,0,.08,0,0,.1-.11.09Zm-.1-.52c.14-.08.24,0,.19,0S34.34,6.91,34.44,6.84Zm0,.37c.06-.06.23-.06.22,0s-.22.06-.22,0Zm-.27.13a.29.29,0,0,1,.3,0c.07,0,0,.16-.18.17s-.14-.12-.11-.16Zm.15.15h.11s-.13,0-.1,0Zm.12.12h-.08S34.44,7.58,34.44,7.61Zm0-.09Zm-.21.11Zm-.1.07h-.07s.14,0,.09,0ZM34,7.7h0c.06,0,.08.05,0,.06ZM34,7.29c.08,0,.22,0,.11.05s-.15.05-.08,0Zm-.17.16a.31.31,0,0,1,.31,0,.3.3,0,0,1-.31.13c-.11.05,0,0,0-.07Zm.12.18H34s-.06.09-.05.06Zm.06.09h0c.08,0,.06,0,0,.06Zm-.23,0s.18-.06.1,0-.07.09-.07.06Zm.07.07h-.06s.16,0,.09.07Zm-.08,0h0s0,.09,0,.09Zm0,.07h0s.07.09,0,.09Zm-.07,0h0c.11,0,.08.11,0,.12Zm0-.05h-.1s.14.08.1.12Zm-.07.11h0c.07,0,0,.11,0,.12Zm-.34-.21a.3.3,0,0,1,.3,0c.07,0,0,.16-.18.17s-.16,0-.13-.06Zm.2.39Zm0-.06h.07S33.39,8.1,33.44,8Zm0-.06h.07S33.44,8,33.44,8Zm-.28.26h0c.07,0,0,0,0,0Zm.09-.14Zm0,.15Zm0,0h0c-.08,0-.05,0,0,0Zm0,0h0s.08-.07,0-.07Zm0-.11h0c-.07,0,0,0,.07,0Zm0,.05h0s0-.09.11-.09Zm0,0h0a.9.9,0,0,1,.19,0ZM32.79,8A.22.22,0,0,1,33,8s0,.11-.09.11,0-.12,0-.15Zm.11.36h0c-.07,0,.07,0,.14,0Zm0,.07h0s.14,0,.11,0Zm.07-.1h0l.11,0Zm0-.23c.1,0,.1.16,0,.18a.17.17,0,0,1-.21-.1A.21.21,0,0,1,33,8.1Zm-.12.32h0c.07,0,.13,0,.08,0Zm0,.06h0s.16,0,.16,0Zm-.06,0s.1,0,.11,0Zm-.07-.14h0s.1,0,.11,0Zm0,.06h0a.55.55,0,0,1,.17,0Zm-1.87,4.13h0s.11,0,.06,0Zm0,0h0l.11.05Zm.08-.15h-.08c-.08,0,.15,0,.19.06Zm0-.19h0s.06.08.08.06Zm.09.28h0c-.06,0,0,.07.08,0Zm0,.17h0s.13,0,.09.06Zm0-.12h0a.1.1,0,0,0,.07,0Zm0,0h0s0,.09,0,.1Zm0,.11H31c-.07,0,.11.07.15.09Zm.08,0h0a.13.13,0,0,1-.12,0,.12.12,0,1,1,.2.14Zm.14.29Zm.06.07Zm-.12-.11s0-.06.08,0S31.22,12.88,31.18,12.86Zm0,.07h-.07c-.07,0,.06,0,.09,0Zm.09.17Zm0,0Zm.08.11h0s0-.05,0,0Zm0,0h.08s-.1-.05-.11-.11Zm.09,0h0C31.54,13.2,31.53,13.19,31.44,13.2Zm.1,0h-.08s.08,0,.11,0Zm-.1,0h0c.06,0,0,0,0,0Zm0-.15Zm0,.15h-.06c-.06,0,.06,0,.06,0Zm0,.06h0v0Zm0,0h0s0,0,.07,0Zm0,0h0s.08.07.12.07Zm.07,0h0a.33.33,0,0,0,.12.09Zm0,.06h0a.68.68,0,0,0,.14.09Zm0-.15h0s.1.09.14.08Zm0,.06h0s.13.1.09.09Zm0,0h0c.07,0,.1,0,.07.05Zm0-.16h0c-.07,0,0,.05,0,.06Zm-.07,0ZM31.32,13h0s.12.07,0,.05Zm0-.05h.06c.06,0,0,.06-.05.05Zm0,0h.07c.07,0,0,0-.08,0Zm0-.12h0a.32.32,0,0,1-.1,0Zm-.1-.08h.07c.07,0-.07,0-.11,0Zm0-.14h0s-.11,0,0,0Zm0,0h0s0,0,0,0Zm-.07-.07h0s0,0,0,0Zm0,0h0s-.05-.07-.08-.08Zm0-.06h0L31,12.38Zm0-.08h0a.63.63,0,0,0-.11-.08Zm0-.1h0s-.07-.07-.11-.07ZM31,12.1h.09A.07.07,0,0,1,31,12.1ZM31,12h0s-.06.07,0,.07Zm0,0h0c-.08,0,0,0,0,0ZM31,12h0C31,12,31,12,31,12Zm0,0h-.09s.1,0,.12,0Zm-.08-.15ZM31,10.44h-.12a.05.05,0,0,1,0,.05.33.33,0,0,1-.29,0c-.08-.06,0-.13.15-.12a.2.2,0,0,1,.18.11s.08-.07.12,0Zm-.1.32H31s-.06,0,0,0Zm0,.1h0s0,0,.09,0Zm-.18.84h0a.15.15,0,0,0,.09,0Zm0,0h0c-.06,0,0,0,.07,0Zm0-.08h0c-.06,0,.05,0,.1,0Zm.16-.87h-.1s.18-.06.2,0Zm0-.11h0c-.07,0,0,0,.07,0Zm-.12.08c-.08,0,0,0,0-.06s0,0,.08,0,.06,0,0,0Zm0,.13h-.12s.16-.08.19,0Zm-.07.21h.09s0,0,0,0Zm.13,0h0Zm0-.18h0c.08,0,0,0,0,0Zm0,.28h-.08s.06,0,.05,0Zm0,.06h0c.08,0,0,0,0,0Zm0,0h-.09s0,0,0,.07Zm0,.14h-.08s0,0,0,.07Zm0,.1h0c.08,0,0,.06,0,.07Zm0-.06h0c-.07,0,0,.08,0,.06Zm0-.09h0a.28.28,0,0,0-.1.06Zm0-.07H31s-.16.08-.11.06Zm0,0h0c-.07,0,0,0,0,0Zm0-.13H31a.06.06,0,0,1-.07,0l0,0Zm0-.11h0c-.08,0-.07.06,0,.06Zm0-.18H31a.09.09,0,0,1-.12,0ZM31,11h0s0,0,0,0Zm0-.15h0c.07,0,0,0-.07,0Zm.13-.16h-.08s0,0,0,0Zm-.07-.13h.07a.07.07,0,0,1-.14,0Zm-.28.59a.07.07,0,0,1-.08,0S30.81,11,30.81,11.1Zm0,.09a.06.06,0,0,1-.08,0s.05-.09.06,0Zm0,.25h-.07c-.07,0,0-.07,0,0Zm0,.11s0,0,0,0Zm.1.33h0c.1,0,0-.05,0,0Zm0,.06h-.09s.1-.08.12,0Zm0-.14h.06s-.12,0-.07,0Zm.09,0h0c-.06,0,0,0,0-.06Zm0,0h0c.07,0,0-.11,0-.1Zm0,0h0c.07,0,0-.18,0-.15Zm0-.09h0s-.06-.14,0-.15Zm0-.1h0c-.07,0-.06-.13,0-.15Zm0-.07h0c.06,0,0-.15,0-.15Zm0-.12h0s0-.13,0-.14Zm0-.06h0c-.09,0,0-.13,0-.14Zm0-.09H31a.61.61,0,0,1-.07-.17Zm0-.1h0c-.08,0,0-.12,0-.14Zm0-.11H31s0-.12,0-.14ZM31,11H31s0-.11,0-.13Zm0-.09H31s0-.11,0-.13Zm0-.14H31c.08,0,0-.11,0-.14Zm0-.25s.07-.06.09,0a.07.07,0,0,1,0-.14h0Zm0-.15H31c.07,0,.05-.11.05-.13Zm.28-.33h-.06s.19-.17.18-.13Zm-.06-.07h.06s.05-.11.06-.13Zm0,.2a0,0,0,0,1-.07,0h0c.1-.13.23-.19.23-.13Zm0,.13h0a1.74,1.74,0,0,1,.13-.15Zm0,0h-.06c-.06,0,.12-.15.14-.09Zm0-.1h-.08s.13-.12.14,0Zm0,0h-.06l.1,0Zm0,.15h0l0,0Zm-.06.16h0s0,0,0,0Zm.06.05h0s.07-.06.07,0Zm-.06.05h.07s-.07,0,0,0Zm0-.23h.1a.08.08,0,0,1,0,0Zm0,0h.06s0,0,0,0Zm0,.06H31.1a.75.75,0,0,1,.15,0Zm0-.16h0s.07,0,0,0Zm0-.06h0s.06,0,.06,0Zm0-.09s0-.05.08,0,0,0,0,0Zm0,0h0s.08,0,.07,0Zm0-.05h.06s.1,0,.09,0Zm0,0h-.07a.09.09,0,0,1,.11,0s.19-.11.19-.09Zm.23-.32h.08S31.56,9.73,31.44,9.71Zm.13-.12h0s.07,0,.09,0Zm-.13.21.07-.05C31.58,9.7,31.44,9.82,31.44,9.8Zm0-.23h0Zm0,0a.09.09,0,0,1-.13,0c-.08-.06.13,0,.19,0Zm0,.29h0C31.38,9.86,31.44,9.88,31.44,9.86Zm0-.05s0-.05.07,0S31.44,9.84,31.44,9.81Zm0-.07h.07s0,0,0,0Zm0-.09s0-.05,0,0,.11,0,.08,0Zm.09,0h-.06c-.06,0,.19,0,.19,0Zm-.07-.1s0-.06.07,0,.08,0,.06,0Zm0-.19c-.06,0,.06-.09.1,0h-.1Zm.07.1h0s.16,0,.19,0Zm0,0h0l.16.06Zm-.06-.09h.07l.09.06Zm0-.48c-.08-.06,0-.13.15-.12s.25.12.14.17h-.13ZM32,9.1h0Zm.07,0h0Zm-.19-.47a.12.12,0,0,1,.16,0c.07.07.1.07,0,.09a.19.19,0,0,1-.16-.1Zm.12.53a.1.1,0,0,1-.11,0c-.06,0,.09-.06.11,0Zm-.13,0s0,0,0-.06.06,0,.06,0a.08.08,0,0,1-.07,0Zm0,.23h-.07c-.07,0,0-.06,0,0Zm0-.07s0-.06.08,0-.12,0-.17,0Zm.12,0a.06.06,0,0,1-.07,0s0,0,0,0Zm0-.1h.06s-.17,0-.19,0Zm.06,0h.07s-.18.05-.2,0Zm.07,0a.06.06,0,0,1-.08,0L32,9.29Zm0-.09h.09A.12.12,0,0,1,32,9.2h0Zm-.1,0h.08A.08.08,0,0,1,32,9.1Zm0-.19c-.07,0,0-.08.09,0s0,0-.06,0ZM32.1,9h.06s-.05.1,0,0Zm0,.05h0c.08,0,.1,0,.06,0Zm0-.09c-.06,0,0-.05.07,0s0,.06,0,0Zm.24-.28h-.07c-.07,0,.07,0,.11,0Zm.1,0a.06.06,0,0,1-.07,0S32.44,8.65,32.44,8.68Zm-.11.12h-.1c-.1,0,0,0,.1,0Zm0,.1s0,0,0,0Zm0,0h0s-.06-.07,0-.05Zm0,.08h-.06c-.06,0-.07-.07,0-.05Zm0,.08h0S32.26,9,32.26,9Zm0,0h0s0-.08-.08-.09ZM32.42,9h0s-.11-.1-.08-.09Zm0,0h0s-.06-.15,0-.14Zm0,0h.09s-.14-.15-.17-.16Zm.06,0h0s0-.19,0-.2Zm0-.28Zm.13-.08h-.08c-.08,0,0,0,.09,0Zm0,.1h-.06c-.06,0,0,0,0,0Zm.07-.06h-.07c-.07,0,0,0,.06,0Zm-.06-.08h.06s-.08,0-.07,0Zm0-.11a.11.11,0,0,1,.13,0l-.07.06c-.07.06-.11,0-.07-.06Zm-.06-.2s0-.08.07-.07.13.07.1.09a.19.19,0,0,1-.18,0Zm.21.33a.07.07,0,0,1-.07,0s.06,0,.05,0Zm-.06-.06s.09-.05.1,0a.08.08,0,0,1-.11,0h0Zm.14,0h0s0,0,0,0Zm0-.06h.06a.06.06,0,0,1-.12,0h.06ZM32.75,8c.11,0,.12.15,0,.18a.19.19,0,0,1-.31-.12A.43.43,0,0,1,32.69,8Zm-.09.37c0,.06-.21.07-.21,0s.18-.06.15,0Zm-.24.09c-.11,0-.34,0-.28-.05s.3,0,.22.05Zm-.2-.2h-.17s.15,0,.11,0Zm-.15.23c0,.06-.23,0-.19,0s.18-.06.14,0Zm-.14.18c.09,0,.11.08,0,.1s-.1,0-.11,0,0-.11.06-.1Zm-.1,0h-.17s.16-.06.12,0Zm-.18.48a.2.2,0,0,1-.28-.06v0c0-.07.13-.12.23-.09s.14.09,0,.16ZM31.59,9h-.2s.18,0,.14,0Zm-.13.4c.07.06-.21.08-.21,0s.09-.08.19,0Zm-.1.1c.11,0,.14.15,0,.18a.2.2,0,0,1-.23-.09c-.08-.08.08-.13.18-.1ZM31,9.58h.16c-.07,0-.24,0-.21,0Zm0,.17a.28.28,0,0,1,.29-.05c.08,0,0,.16-.15.17s-.2-.09-.18-.13ZM31,10c.11,0,.14.15,0,.18a.2.2,0,0,1-.25-.11c0-.06.13-.1.24-.08Zm-.32.14h.1c.09,0,.13.09,0,.11a.25.25,0,0,1-.22-.05h0s.05-.08.1-.07Zm.09.59c.12.05-.13.11-.18.06s.05-.12.16-.07Zm-.33,1c.07,0,.06,0,0,.07s0,0,0,0Zm0,.26s0-.08.07-.06,0,.05,0,.07a.06.06,0,0,1-.08,0h0Zm.2.3H30.5s.06-.06.1,0,0,0,0,0ZM30.44,11a.12.12,0,0,1,.22,0C30.69,11.1,30.37,11,30.44,11Zm.32.6h0c-.06,0-.07,0,0,0Zm.16.79a.06.06,0,0,1-.08,0h0c0,.05.07,0,.05,0Zm0-.23h0s0,0,0,0Zm0,0h0s0,0,0,0Zm0,.07h0s0,0,0,0Zm0,.35h0a.08.08,0,0,0,0,0Zm0,.08h0s0,0,0,0Zm0,.19H31c.07,0,0,.06,0,0Zm.08.15h0s.12.06.06,0Zm.21.49c-.08,0-.14,0-.08-.08a.19.19,0,0,1,.2,0c.11.12.06.13-.06.11Zm.34.25a.18.18,0,0,1-.18,0h.21s.12,0,0,0Zm0-.19h0l.07,0Zm.06,0Zm0-.06Zm.12.08h0s0,0,0,0Zm0,.08Zm0,.09Zm.06-.1h0s.1,0,.06,0Zm.1,0a.1.1,0,0,1-.1,0h0s.16,0,.15,0Zm-.08.11Zm.1.07h0c.06,0,.11,0,.05,0Zm.15,0a.13.13,0,0,1-.11,0h.06c.06,0,.14,0,.1,0Zm0,.06h0a.18.18,0,0,1,.1,0ZM32,13.78Zm.16.32h0a.09.09,0,0,1,.11,0S32.16,14.18,32.11,14.1Zm.16-.19h0s-.06,0,0,.05Zm.17.46a.25.25,0,0,1-.16,0h.07C32.42,14.37,32.5,14.35,32.44,14.37ZM32.35,14h0s.09,0,0,0Zm.06,0h0s0,0,0,0Zm.11.13h0s.06,0,0,0Zm.12.08h0c.09,0,0,0,0,0Zm.07.08h0c.06,0,0,0,0,0Zm0,0Zm.11.07h0c.07,0,.06,0,0,0Zm0,.07h0s.13,0,.07,0Zm.19.33a.14.14,0,0,1-.13-.07h.18c.06,0,.09.06,0,.06Zm.1-.18c-.07,0-.1,0,0,0s.14,0,.07,0Zm.28.27a.12.12,0,0,1-.12,0h0S33.51,14.85,33.44,14.86Zm-.09-.25h0s.09,0,0,0Zm0,0h0a.25.25,0,0,0,.09,0Zm.23.13a.07.07,0,0,1-.08,0h0s.15,0,.11,0Zm.19.13h0l.08,0Zm.54.23Zm0,0Zm0,0Zm0,0Zm.1.08Zm0,0Zm0,0Zm.09.06h-.06s.1,0,.08,0Zm0-.07h0s0,0,0,0Zm0,0h.06s0,0,0,0Zm0,.06h.08s0,.05,0,0Zm.08-.07h0a.07.07,0,0,0,0,0Zm0,.1h0s0,0,0,0Zm.11,0h-.06c-.06,0,.11,0,.13,0Zm0,.1a.08.08,0,0,1-.09,0h.08c.08,0,.16,0,.12,0Zm0-.06h0s.07,0,.08,0Zm.12.1h0l.08,0Zm0,0h0l.07,0Zm0,0h0l0,0Zm0,0a.06.06,0,0,1,.08,0h0s0,0,0,0Zm0,0h0l.15,0Zm.11,0h-.06a1.08,1.08,0,0,1,.21,0Zm0,0Zm.08,0h0l.15,0Zm0,0H35a1.46,1.46,0,0,0,.24.07Zm.25.08h0a.06.06,0,0,1-.06,0,1,1,0,0,0,.24.07Zm0,0Zm0,0h0s.11.08.11.07Zm0-.07h0s.11.08.11.07Zm0,0h0a1.14,1.14,0,0,1,.11.11Zm-.06,0a.07.07,0,0,1-.08,0,.07.07,0,0,1,.08,0s.18.13.12.13Zm0,0h0s.12.08.1.09Zm-.06,0h0s.12,0,.1,0Zm-.08.09Zm.07.07h.17l-.07,0Zm.32.13a.3.3,0,0,1-.2,0h.18c.08,0,.19,0,.12,0Zm0-.14h-.07a1,1,0,0,1,.18,0Zm0-.09h0a.62.62,0,0,0,.14,0Zm-.06,0H35.4s.23.07.2.08Zm.06.08h0s.15.07.14.08Zm0-.06h0l.14.08Zm0,.07h.06a.07.07,0,0,1,.09.08Zm0-.11h0a1.05,1.05,0,0,0,.18.08Zm0,0h0a.1.1,0,0,1,.15.13h0Zm.13,0h0a.08.08,0,0,1-.09,0,1.54,1.54,0,0,0,.29.15Zm1.09.44a.48.48,0,0,1-.34.08,2.46,2.46,0,0,1-.4,0,.58.58,0,0,1-.37-.2,1,1,0,0,1,.8-.09c.46.15.54.28.51.36Zm-.73-.43h0a2.07,2.07,0,0,1,.2.15Zm.06,0h.08a.1.1,0,0,1-.09,0s.16.16.22.15Zm0,.08h0a.11.11,0,0,1-.11,0,1.66,1.66,0,0,0,.3.15Zm-.07,0h0s.22.09.2.1Zm0,0a.1.1,0,0,1-.09,0h0s.27.14.23.15Zm0-.06H36c.06,0,.17.14.13.16Zm-.06,0h-.06s.27.17.25.18Zm-.08-.06h0s.25.19.19.18Zm.52,0a.07.07,0,0,1-.07,0h0s.29.18.26.19Zm0,.07a0,0,0,0,1-.06,0h0s.28.17.25.18Zm.07-.06h.06a.09.09,0,0,1-.09,0s.18.19.23.19Zm.22,0h0s.22.21.2.22Zm0,0h0a.06.06,0,0,1-.06,0,1.94,1.94,0,0,0,.3.21Zm-.09.1a.08.08,0,0,1-.09,0h.06c.06,0,.3.2.27.21Zm-.09-.07h.06a.14.14,0,0,1,.19.21Zm.22.14c-.07,0-.06,0,0,0a.12.12,0,0,1,.11,0,.15.15,0,0,1,.14.26Zm.1-.09a.08.08,0,0,1-.08,0h0a2.66,2.66,0,0,1,.33.21Zm.21.07a.11.11,0,0,1-.09,0h0a2.19,2.19,0,0,1,.34.21Zm.1.1a.12.12,0,0,1-.11,0h0s.39.19.36.22Zm-.18-.17a0,0,0,0,1-.06,0h0s.33.2.31.22Zm.19.5a.27.27,0,0,1-.22,0h.2c.06,0,.38.2.27.22Zm0-.4h.11s.13.25.12.22Zm.21.14c.08,0,.11,0,.06.06a.19.19,0,0,1-.14,0c.23.19.23.15.31.16Zm.4.46a.76.76,0,0,1-.35,0c-.11,0-.18-.07-.07-.11a.65.65,0,0,1,.39,0s.29.3.26.32Zm-.18-.4s-.1,0,0-.06.1,0,.09,0,.17.24.14.23Zm.11.06h-.08a.75.75,0,0,1,.31.22Zm.31.28h0Zm.1.07h0s0,0,0,0Zm0-.07h0Zm.09.37c-.1,0,0-.06,0-.07a1,1,0,0,1,.17,0,.16.16,0,0,1-.15.08Zm0-.31Zm.22,0h-.06s.11,0,.08,0Zm0,0Zm-.09,0h0s.08.07.06.07Zm0,0h0l0,0Zm.09.06Zm.11,0h0s0,0,0,0Zm0,0h0s0,0,0,0Zm.23.35a.25.25,0,0,1-.22,0c-.07,0,.06-.06.13,0s.11,0,.1,0Zm-.12-.3h0s0,0,0,0Zm0,0h0s0,0,0,0Zm0,0Zm0,.19h.18c.07,0,.09.06,0,.07a.23.23,0,0,1-.09-.07Zm.07-.13Zm0,0Zm.06,0Zm0,0h0a.9.9,0,0,0,.16,0Zm.34.39a.29.29,0,0,1-.29,0,.12.12,0,0,1,.12-.12c.12,0,.4.1.33.14Zm-.25-.37Zm.09,0h0a.75.75,0,0,0,.16,0Zm.08,0Zm.3.12c.12,0-.17.12-.23,0s.27,0,.39,0Zm-.12-.08h.06s.09.09.1.08Zm.26.35c-.09,0-.26,0-.26-.06s0-.12.19-.1.32.2.22.24Zm.11-.21a.16.16,0,0,1-.17,0s0-.06.11-.06.25.11.21.14Zm0-.09h0a.06.06,0,1,1,.1.08Zm-.09,0h0a1,1,0,0,1,.13.09Zm.15.3c-.06,0,.12-.08.2,0s.11.26-.05.14Zm.19-.12c-.09,0,.09-.09.12,0s.12.14,0,.09Zm0-.13Zm.15,0h0s.15.12.12.13Zm.1,0h0c.08,0,.19.12.13.13Zm.24.21a.16.16,0,0,1-.17,0s0-.06.11-.06.23.17.19.2ZM40,16.46h0c-.1,0,.09.14.13.14Zm.13,0h0s.21.12.18.14Zm.08,0h0s.2.15.13.16Zm.14.27c-.07,0,.07-.1.14,0s.14.21,0,.16Zm0-.21h.07s0,.18.06.16Zm0-.06h0c-.09,0,.06.17.14.16Zm.09,0h0c-.09,0,.11.17.15.17Zm.07.07h0s.23.17.15.17Zm.17.19c-.14,0-.12-.08,0-.06s.31.22.16.23Zm0-.22h0s.11.17.13.17Zm.08.07h0l.13.17Zm0,0h0s.22.12.17.12Zm.11.07H41c.07,0,.14.14.1.12Zm0-.08h0c-.09,0,.16.13.21.12Zm.37.49c-.23,0,0-.23.21-.15S41.55,17.1,41.27,17.1Zm-.07-.35h0s0,0,0,0Zm0,0h0c-.08,0,0,0,0,0Zm.11,0h0s.08.09,0,.08Zm.15,0h-.09c-.09,0,0,.09.09.1Zm.1,0h0s0,.09,0,.09Zm.1,0h0s0,.11,0,.12Zm0,0h0c-.07,0,0,.12,0,.12Zm.25.21c.07,0,0,.09-.2.07s0-.15.14-.1h0a.26.26,0,0,1,.21-.07c.12.12.06.29-.16.21Zm-.12-.19h0s-.05.11,0,.11Zm.17,0h0c-.08,0,0,.14,0,.15Zm.15,0c.09,0,0,0,0,0s-.06.13,0,.14Zm.22.3c-.09,0-.25-.06-.16-.11a.57.57,0,0,1,.41,0s-.1.27-.25.25Zm-.08-.25c.1,0,0,.06-.06,0s0,.13,0,.14Zm0,0h0c-.07,0,0,.12,0,.12Zm.1,0h0c-.09,0-.06.11,0,.1Zm.17,0c.06,0,0,.06,0,0s-.07.12,0,.14Zm.13.1h-.12a.17.17,0,0,1,.17,0s0,.14-.07.13Zm.07-.07h0c-.09,0,0,.13,0,.13Zm.37.24a.29.29,0,0,1-.3,0,.12.12,0,0,1,.13-.12c.13,0,.23.18.16.25ZM43,16.8h0s0,.13,0,.13Zm.11.08s0,0,.07,0,0,.16-.08.13Zm.26.22a.08.08,0,0,1-.11,0,0,0,0,0,1,0,0S43.44,17.1,43.36,17.1Zm-.09-.16Zm.17.06Zm.21,0h0s0,0,0,0Zm0,.17s.12-.08.19,0,0,.15-.16,0Zm.09-.07h0Zm.11-.06h0s0-.06,0-.05Zm.25.22c-.09,0-.26-.06-.16-.11a.57.57,0,0,1,.41,0,.33.33,0,0,1-.25.06ZM44,17.07h0s0,0,0,0Zm0,0h0S44,17,44,17Zm.1,0h0s0,0,0,0Zm.19,0c.12,0,0,0-.09,0s.08-.06.11,0Zm.26.21c-.14,0-.23-.12,0-.12s.31,0,0,.07Zm0-.17Zm.12,0Zm0-.06a.18.18,0,0,1,.13,0h-.13Zm.11.14c-.06-.06.1-.08.17,0s0,0-.09,0Zm.12-.13h.08c.08,0,0,0,0,0Zm.2,0h.11S45.08,17.15,45.05,17.1Zm.1-.09h0s0,0,0,0Zm.16.19H45.2a.11.11,0,0,1,.12,0s.06,0,0,0Zm-.11-.1Zm.08,0Zm0,0h0Zm.09,0s.14,0,.14,0S45.44,17.1,45.37,17.1Zm.1-.06h.06c.06,0,0,.06-.09,0Zm.15,0h0s0,.06,0,.06Zm.11,0h.12s-.12.06-.13.06Zm0,0h.06c.06,0,0,.06-.05,0Zm.3.17c-.1,0-.28,0-.21-.09a.61.61,0,0,1,.42,0c.08,0,0,.1-.2.1Zm-.1-.11h0Zm.22,0h0s0-.08,0-.07Zm.06,0h0Zm.11,0h.13A.2.2,0,0,1,46.32,17.1Zm.12-.09Zm0,.16c-.11,0-.09-.08,0-.09s.39.12,0,.1Zm.12-.15h0Zm.06,0a.09.09,0,0,1,.11,0s-.06,0,0,0Zm.17.08a.14.14,0,0,1,.12,0Zm0,0h.07s0,0,0,0Zm.19,0c-.08,0,0-.08.07,0S47.07,17.1,47,17.1ZM47,17Zm0,0h0L47,17Zm.07,0a.12.12,0,0,1,.11,0c.12.06-.07.11-.05.05Zm.13,0h.08a.06.06,0,0,1,0,0Zm.06,0h.08s0,.16,0,.09Zm.2,0Zm0,.06h.06C47.56,17,47.44,17.05,47.44,17Zm.1,0a.1.1,0,0,1,.1,0c.07,0-.1,0-.09-.05Zm.19,0h0s.05,0,0-.05Zm.11,0h.09s-.06,0-.08-.07Zm.13.06H47.9a.2.2,0,0,1,.15,0s0-.07-.07-.07ZM48,17h0s.09-.06.06-.07ZM48,17h0s.08-.08.06-.1Zm.14,0h.06c.06,0,0,0,0,0Zm.11,0h.06s0-.07,0-.1Zm.16,0Zm.12-.08H48.5s.08,0,0,0Zm.07,0h0s-.08,0-.08,0Zm.15,0h0c.06,0,0,0,0,0Zm0,0h0c.07,0,0-.06,0-.05Zm.14,0h-.06s.1-.07.08-.05Zm0,0H49s-.05,0-.05,0Zm0-.06H49s0,0,0,0Zm.17,0h0c.07,0,.11,0,.05,0Zm.09,0h0s.11,0,.05,0Zm.07-.06h0s0,0,0,0Zm.09.07h0s.1,0,.05,0Zm.1-.09h.06S49.44,16.76,49.44,16.75Zm.08.07Zm0-.09Zm.16,0h-.06s.11,0,.09,0Zm.1,0h0c.06,0,.1,0,0,0Zm0-.08h0c-.1,0,0,0,.06,0Zm.08.1h0s.12,0,.06,0Zm.12-.07h0c.06,0,.1,0,0,0Zm0,0H50s0,0,0,0Zm.09.07h0s.16,0,.1,0Zm.08,0Zm.07-.06h0s.15,0,.1,0Zm.13,0h0c.07,0,.14,0,.09,0Zm.1,0Zm.18,0c-.08,0-.07,0,0,0s.19.06.1.06Zm-.07-.07h.06s0,0,0,0Zm.14,0h-.07s.21,0,.18,0Zm.12,0h0c.07,0,.19,0,.11,0Zm.24,0a.16.16,0,0,1-.14,0,.12.12,0,0,1,.15,0c.07.06.18,0,.11,0Zm0-.07h0Zm.08,0h0c.06,0,.14,0,.08,0Zm.11,0h0s.13,0,.08,0Zm.19-.11Zm.07.1c-.08,0,0,0,0,0s.1,0,0,0Zm.07-.09Zm.11-.07h0s-.06,0,0,0Zm.08.07Zm.19-.06Zm0,0h0s.08,0,0,0Zm.15,0h0s.1,0,0,0Zm.09,0h0s.08-.07,0-.07Zm.12-.06h0s0-.07,0-.07Zm0,.08h0s.12-.07.07-.07Zm.06-.1h0l.06-.07Zm0,.06h0s.18-.06.06-.07Zm.06-.1h0s.07-.12.11-.12Zm.14,0h-.07a.13.13,0,0,1,.12,0s.12-.05.06,0Zm.1-.06h0c.06,0,.15-.06.11-.06Zm.18-.08H52.8c-.06,0,.14,0,.17,0Zm0,.07s.09-.06.1,0,0-.05,0-.05Zm.28-.05Zm0,0h0s0,0,0,0Zm.09,0h0s0-.06,0-.06Zm0,0c-.08,0,0-.06,0-.06S53.44,16.1,53.33,16.1Zm0-.15Zm.07,0h0s0,0,0,0Zm0-.07h0l0,0Zm.08,0Zm0,.06h0s.16,0,.1,0Zm.15,0h0s.15,0,.1,0Zm.08,0h0s.14-.06.1-.07Zm.08-.07h0s.08-.07.1-.08Zm0,.12.06,0c.06,0,.06,0,0,0Zm.14-.08h0s.12-.06.07-.08Zm.07-.07h0s.12-.07.08-.08Zm.06,0h0s.13-.06.08-.06Zm.09,0s0-.06,0-.06.08,0,0,0Zm.13,0,.08,0c.08,0,.07,0,0,0l-.05,0Zm0-.09h0s.1-.09.16-.09Zm.16-.14Zm0,.07Zm.06-.06h.07c.07,0,0,0,0,0Zm.13,0h0s.1,0,.07,0Zm0,0h.08s0,0,0,0Zm.08-.09h0s.14,0,.1,0Zm0,0h0s.17-.07.12-.08Zm.06,0h0s.15,0,.12,0Zm0,0h0s.19-.09.15-.09Zm0,0h.06c.06,0,.17,0,.14-.06Zm.1-.08h0s.25,0,.2-.06Zm0,0h0a1.57,1.57,0,0,0,.25,0Zm0-.07h0l.29,0Zm.08,0Zm0-.06H55c.06,0,.28,0,.25,0Zm.16,0h0s.33-.05.33,0Zm.06,0h0s.37-.07.27-.08Zm.19,0h-.11a.12.12,0,0,1,.12,0l.31-.07Zm-.06-.1h0l.32-.07Zm.08,0h0l.32-.07Zm0,0h0s.37-.07.34-.12Zm.06,0h0s.37-.12.34-.12Zm1-.35h0C56.5,14.87,56.44,14.85,56.44,14.87Zm0-.08Zm.06,0Zm0-.07Zm.15.14c-.11,0-.15.06-.18,0s.11-.1.18-.1.17.07.06.1Zm.08-.13h-.12s0-.07.12-.06.11,0,.06.06Zm.14-.15h0a.11.11,0,0,1,.06,0Zm0,0h0a.3.3,0,0,1,.1-.05Zm0,.17s0-.06,0-.06.14,0,.09,0Zm.18-.2h0s.16,0,.09-.05Zm.09-.12h0s.06-.06.09,0Zm0,.07h0s.16,0,.11-.06Zm.09,0c-.07,0,0,0,0,0h.11Zm.21-.13Zm0-.08Zm0,0h0s.1,0,0,0Zm0,0h0s.13,0,.07,0Zm.08,0h0s.13,0,.07,0Zm.09,0h0s.11-.09.08-.09Zm0,0h0s.15-.09.11-.09Zm0,0h0s.19-.15.14-.09ZM57,13.94h0l-.07,0h0l-.22.11h0l-.23.15h-.12l-.19.1H56c.11,0-.17.1-.13.06h-.09l-.13.06H54.44l-.22.08h-.67l-.38.11H53l-.56,1.14h-.07l-.22,0H51.4a.06.06,0,0,1-.06,0h-.22a.08.08,0,0,1-.08,0H51a.06.06,0,0,1-.08,0h-4.8a.06.06,0,0,1-.06,0H45a.1.1,0,0,1-.08,0h-.06a.1.1,0,0,1-.1,0H40.64l-.2.45h-.87l-.13-.2H39L38.84,16h-.2a.06.06,0,0,1-.07,0h-.18a.11.11,0,0,1-.09,0H36.46a.06.06,0,0,1-.06,0H35.22a.06.06,0,0,1-.07,0h-.77L34.23,16h-.06l-.3-.17h-.06l-.37-1.7h-.1a.08.08,0,0,1-.09,0h0L33.16,14h0a.07.07,0,0,1-.07,0h0L33,13.93a.06.06,0,0,1-.08,0h0l-.49-.75h0a3.36,3.36,0,0,1-.21-.28h0v-.08h0a.07.07,0,0,1-.07,0h0l-.07-.14h0v-.1h0v-.09h0v-.05h0V12.3h0v-.15h0a.32.32,0,0,1,0-.05h0a.45.45,0,0,1,0-.06h0a.5.5,0,0,0,0-.05h0a.89.89,0,0,1,0-.09h0A3.23,3.23,0,0,1,32.92,10,6,6,0,0,1,34.5,8.69h.08l-.14-.59h.07l.1-.05h0L34.78,8H35l.17-.07h.95l.24-.09h.2l.16-.06h-.11a.14.14,0,0,1,.12,0h.17L37,7.73h1.34l.29-.07h0l.28-.06h.2a.06.06,0,0,1,.06,0h1.41a.06.06,0,0,1,.06,0h0l.77-1.5h3.92l.52-.05h2.39l.17.05h.23l.2.07h0l.13.06h0l.18.08h.6l.1.05h.51V7.1h.07l.13.05H51.7a.06.06,0,0,1,.06,0h.7a.11.11,0,0,1,.08,0,0,0,0,0,1-.06,0h.79a.06.06,0,0,1,.06,0h2.92l.51.19h.12l.14.08h0l.22.13h.1L58,9.1h.1l.11.12h0l.09.12h0v.07h0a0,0,0,0,1-.06,0v.05h-.06v.07h0a1.68,1.68,0,0,1,.1.24h0a.41.41,0,0,1,0,.07h-.07v.1h0a0,0,0,0,1-.07,0h0a.48.48,0,0,0,0,.05h0v.08h0v.14h0v.15h0v.74h0v.08h0v.09h0a.81.81,0,0,1,0,.09h0v.1h0v.24h0v.05h0v.05h0s0,.06,0,0h0v.08h0l-.07.16h0v.09h0v.08h0c.08,0,0,.06,0,0h0l0,.1h0c.06,0,0,.05,0,0h0l-.07.11h.21c.07,0,0,.06,0,0h0l0,.08h0l-.06.08h0s0,.08,0,.06h0l-.1.13h0v.06h0s0,.07-.06,0h0l-.09.1h0l-.29.59h0l-.08.08h0s-.17.22-.21.21Zm-.8,1.1h0s.17-.13.14-.14Zm-.07,0h0l.14-.09Zm2.1-1.45c-.07,0,0-.06,0,0s.25-.08.14-.09Zm0,0h0s.19,0,.14,0Zm-.33.26h0s.11-.06.14,0Zm-.07.13h0s.19,0,.14,0Zm.07-.07h0c-.1,0,.11,0,.15,0Zm.06,0h0s.2-.09.15-.09Zm0-.06h0a1.14,1.14,0,0,1,.19-.09Zm.06-.06h0a.67.67,0,0,1,.19-.09Zm.06-.07h0s.16-.1.19-.09Zm0,0h.07c.07,0,.13-.1.09-.12Zm-.34.36h0c-.07,0,.14-.11.17-.12Zm.24,0h-.07A.19.19,0,0,1,58,14C58.1,14.1,58,14.1,57.94,14.1Zm.34-.18c-.06.08-.37,0-.21,0s.29-.07.21,0Zm0-.1c-.1,0-.25-.06-.08-.09s.19.08.09.12Zm.36-.23a.41.41,0,0,1-.32,0,.35.35,0,0,1,.34-.12c.11,0,.13.11,0,.15Zm.25-.3a.39.39,0,0,1-.26,0c-.07,0,0-.09.16-.09s.17.08.1.12Zm.23-.17a.4.4,0,0,1-.32,0c-.08-.05.1-.16.22-.16s.21.14.1.19Zm0-.71h0s.06,0,0,0Zm.06-.12h0s0,0,0,0Zm.32.44a.28.28,0,0,1-.27.08c-.12,0,0-.15.07-.18s.28.07.22.13Zm0-.17h.17a.13.13,0,0,1-.14,0Zm.16-.23c-.07,0-.3,0-.15-.07s.27,0,.18.11Zm.22-.23a.41.41,0,0,1-.32,0c-.08-.05.1-.15.22-.16S60,12,59.93,12.1Zm.23-.14H60s.34-.12.19,0Zm0-1.7c-.15,0-.19-.13-.09-.17a.24.24,0,0,1,.28.06s0,.12-.15.1Z"/><ellipse class="cls-7" cx="48.81" cy="6.62" rx="0.32" ry="0.14" transform="translate(-0.18 1.54) rotate(-1.8)"/><ellipse class="cls-7" cx="47.9" cy="6.78" rx="0.21" ry="0.09" transform="translate(-0.18 1.38) rotate(-1.65)"/><ellipse class="cls-7" cx="46.52" cy="6.54" rx="0.21" ry="0.09" transform="translate(-0.18 1.43) rotate(-1.76)"/><ellipse class="cls-7" cx="55.14" cy="8.35" rx="0.21" ry="0.09" transform="translate(-0.23 1.66) rotate(-1.72)"/><ellipse class="cls-7" cx="35.53" cy="9.23" rx="0.21" ry="0.09" transform="translate(-0.26 1.05) rotate(-1.69)"/><path class="cls-8" d="M43.61,18.1c-8.12-.3-14.3-3.92-15-8.45a5.48,5.48,0,0,1,0-1.93c0-.14.07,1.33.24,1.94,1.36,4.13,8.07,7.14,14.91,7.38,6.11.22,10.52-1,13.85-2.8.88-.48,3-2.28,3-2.11a13.66,13.66,0,0,1-2.8,2.53,24.86,24.86,0,0,1-14.2,3.44Z"/><path class="cls-1" d="M62.65,10.15a8.08,8.08,0,0,0-.21-2.36c-.14-.74-.27-1.12-.2.36a4.5,4.5,0,0,1-.18,1.36c-1.19,4.48-8.17,8.35-16.58,8.33-6,0-11.58-1.94-14.52-4.6a7.11,7.11,0,0,1-2.4-5.14c0-2.56,2-4.89,5.07-6.57.53-.28.51-.43-.2-.1C29.51,3.33,27,6.19,27,9.43a6.34,6.34,0,0,0,.4,2.19,67.41,67.41,0,0,0,4,21.77l.31.71A24.78,24.78,0,0,0,34.88,40c4.56,5.81,18.46,4.89,21.87-2.23a60.93,60.93,0,0,0,4.5-16.61c.67-5.33.27-3.23-.42-.22a55.62,55.62,0,0,1-5,14.08c-3.79,6.78-14.7,7.44-18.89,3.23C33.49,34.85,28.44,19.2,27.56,12c1.94,4.52,8.95,7.89,17.29,7.91C54.32,19.89,62.07,15.59,62.65,10.15Z"/><path class="cls-2" d="M55.44,18.94c-2.11.89-2,.65-2.18,2.44a87.92,87.92,0,0,1-2.38,15.37c-.34,1.35-.63,1.65.56,1.21,2.73-1,7.27-14.06,7.9-17.87.7-4.27.85-3.46-1.55-2.23-.82.42-1.54.74-2.33,1.08h0Z"/><path class="cls-2" d="M49.9,20.25c1.11-.2,1.14-.69,1.07.84a103.29,103.29,0,0,1-1.15,10.4c-.38,2.46-.57,2.68-.92,0-.47-3.51-.82-7.3-1-10.08-.08-1.25-.13-.93.81-1C49.11,20.37,49.51,20.32,49.9,20.25Z"/><path class="cls-9" d="M56.57,11.39c0,2.16-4.58,4-10.3,4.15S35.88,14.1,35.73,12,40.12,8,45.9,7.74,56.52,9.21,56.57,11.39Z"/><path class="cls-6" d="M46.51,12.34c.07-.06-.09-.16-.3-.12s-.15.1-.06.16A.39.39,0,0,0,46.51,12.34Zm.13-.12c.24,0,.33-.07.32-.12a.25.25,0,0,0-.21-.1.53.53,0,0,0-.38.07C46.31,12.15,46.44,12.21,46.64,12.22Zm-2.14-.45c.14,0,.21,0,.22-.1s-.1-.09-.23-.09a.28.28,0,0,0-.25.07C44.22,11.7,44.28,11.76,44.5,11.77Zm-.4.13c.09-.06,0-.11,0-.14a.43.43,0,0,0-.27,0c-.08,0-.17.07-.12.14A.48.48,0,0,0,44.1,11.9Zm1.76,0a2.1,2.1,0,0,1,.77,0c.42.1.51.33.49.43a1.28,1.28,0,0,1-1.82-.1.6.6,0,0,1,.56-.34Zm-.75,1a1.23,1.23,0,0,1-.91.12c-.41-.1-.53-.3-.33-.46a1.69,1.69,0,0,1,.88-.1h.13a.26.26,0,0,0-.21.1.52.52,0,0,0-.23,0,.16.16,0,0,0-.17.12c0,.07.13.09.29.09s.19-.06.19-.11a.42.42,0,0,0,.3,0h0a.16.16,0,0,1,.06.21Zm-.39-1.45c.27.11.42.26.31.48a1.8,1.8,0,0,1-1.58.3c-.73-.14-.8-.5-.37-.72a2.35,2.35,0,0,1,1.64-.1Z"/><path class="cls-1" d="M7.62,62.1a3.82,3.82,0,0,1-1.49,2A3.72,3.72,0,0,1,4,64.81a3.78,3.78,0,0,1-2.8-1.19A3.92,3.92,0,0,1,0,60.78,3.87,3.87,0,0,1,1.17,58a3.67,3.67,0,0,1,2.7-1.19A3.52,3.52,0,0,1,5.19,57a4.07,4.07,0,0,1,1.07.71v-.79H7.44v2.44H6.06a2.4,2.4,0,0,0-.91-.88A2.47,2.47,0,0,0,4,58.18a2.35,2.35,0,0,0-1.78.74,2.51,2.51,0,0,0-.7,1.8,2.41,2.41,0,0,0,.74,1.77A2.45,2.45,0,0,0,4,63.23,2.37,2.37,0,0,0,5.13,63a2.46,2.46,0,0,0,.92-.85Z"/><path class="cls-1" d="M17.15,60.67A4,4,0,0,1,16,63.55a3.91,3.91,0,0,1-5.53.12l-.12-.12a4,4,0,0,1-1.17-2.87,3.79,3.79,0,0,1,1.19-2.81A3.93,3.93,0,0,1,13.2,56.7,4,4,0,0,1,17.15,60.67Zm-1.48,0A2.49,2.49,0,0,0,15,58.89a2.3,2.3,0,0,0-1.74-.74,2.55,2.55,0,0,0-1.82.73,2.34,2.34,0,0,0-.77,1.76,2.57,2.57,0,0,0,.73,1.84,2.45,2.45,0,0,0,3.46.1l.1-.1a2.52,2.52,0,0,0,.75-1.77Z"/><path class="cls-1" d="M24.44,59.24H23V58.1H21.06v2h2.21v1.14H21.06V63.3h.82v1.21H18.76V63.37h.85V58.1h-.8V56.92h5.63Z"/><path class="cls-1" d="M31.73,59.24H30.27V58.1H28.35v2h2.21v1.14H28.35V63.3h.82v1.21H26.06V63.37h.85V58.1h-.8V56.92h5.63v2.32Z"/><path class="cls-1" d="M39,59.21H37.59v-1H35.68V60.1h2.21v1.13H35.7v2.11h1.92v-1.1H39v2.3h-5.6V63.37h.84V58.1h-.84V56.92H39Z"/><path class="cls-1" d="M46.35,59.21H44.9v-1H43V60.1H45.2v1.13H43v2.11h1.92v-1.1h1.42v2.3H40.7V63.37h.84V58.1h-.79V56.92h5.59v2.29Z"/><path class="cls-1" d="M57.78,64.57H54.72V63.36h.84V58.91l-2.23,5.66h-1l-2.11-5.71v4.5H51v1.21H48V63.36h.84V58.1H48V56.92H50.8l2,5.32,2.11-5.32h2.84V58.1H57v5.24h.82v1.23Z"/><path class="cls-1" d="M67.59,64.57H64.44V63.36h.74l-.36-1H62.15l-.45,1h.82v1.21H59.44V63.36h.78l2.22-5.26h-.83V56.92h2.53l2.65,6.44h.79v1.21Zm-3.15-3.35-1-2.59-1,2.6h2Z"/><path class="cls-1" d="M74.74,64.57H69.23V63.36h.84V58.1h-.8V56.92h3V58.1h-.83v5.12h1.82v-1h1.48v2.34Z"/><path class="cls-1" d="M81.93,64.57H76.44V63.36h.84V58.1h-.84V56.92h3V58.1h-.8v5.12h1.8v-1h1.44v2.34Z"/></g></g></svg>